<ttFont>
          <CharString index="0">
            254 82 rmoveto
            -12 -13 -25 -10 -20 hhcurveto
            -107 callgsubr
            return
          </CharString>
          <CharString index="1">
            40 345 rmoveto
            -52 callsubr
            -51 callsubr
            -85 callsubr
            vhcurveto
            404 -285 -85 callgsubr
            79 -150 -177 -147 -74 -119 -130 hvcurveto
            return
          </CharString>
          <CharString index="2">
            -103 callgsubr
            43 -28 25 -42 -38 -30 -34 -36 vhcurveto
            endchar
          </CharString>
          <CharString index="3">
            155 vstem
            -106 callsubr
            return
          </CharString>
          <CharString index="4">
            437 -68 callsubr
            -104 -114 -80 -161 -122 76 -97 150 -92 callgsubr
            4 60 -68 callgsubr
            return
          </CharString>
          <CharString index="5">
            -161 -35 -56 -26 -78 vvcurveto
            -57 48 -42 59 58 44 36 23 21 vhcurveto
            -25 9 6 -34 28 hhcurveto
            28 100 34 6 14 hvcurveto
            -5 21 0 6 -3 14 rrcurveto
            -25 hlineto
            -4 -12 -1 -11 hhcurveto
            return
          </CharString>
          <CharString index="6">
            hstem
            11 callgsubr
            453 -104 callsubr
            return
          </CharString>
          <CharString index="7">
            hstemhm
            110 124 hintmask 10110000
            -96 callsubr
            hintmask 01110000
            -30 callgsubr
            hintmask 10110000
            2 45 44 -83 callsubr
            return
          </CharString>
          <CharString index="8">
            -87 callgsubr
            -106 -132 5 -14 8 -9 23 -6 rlinecurve
            121 83 122 -83 -91 callgsubr
            -100 122 rlineto
            return
          </CharString>
          <CharString index="9">
            24 hlineto
            17 64 1 44 hhcurveto
            -67 callgsubr
            4 38 1 35 34 vvcurveto
            37 0 23 -12 27 vhcurveto
            -40 -70 1 -46 hhcurveto
            -259 hlineto
            return
          </CharString>
          <CharString index="10">
            hstem
            35 -36 callgsubr
            -102 callgsubr
            return
          </CharString>
          <CharString index="11">
            234 433 -88 callsubr
            -22 -26 hvcurveto
            -60 callgsubr
            return
          </CharString>
          <CharString index="12">
            47 71 0 -3 46 hvcurveto
            -11 53 rlineto
            -50 -20 25 57 -23 hvcurveto
            -236 578 rlineto
            -87 hlineto
            -209 -562 -21 -55 -17 -35 -73 -7 rlinecurve
            return
          </CharString>
          <CharString index="13">
            hstem
            25 callsubr
            166 115 vstem
            -103 callsubr
            return
          </CharString>
          <CharString index="14">
            rmoveto
            -3 -12 4 -16 16 -15 223 61 rcurveline
            3 2 -1 4 -1 3 -12 23 -29 35 -35 19 rrcurveto
            endchar
          </CharString>
          <CharString index="15">
            -20 -43 callsubr
            hintmask 11101100
            -107 callsubr
            hintmask 11110100
            -102 callsubr
            return
          </CharString>
          <CharString index="16">
            -27 callgsubr
            hintmask 10111100
            -43 callgsubr
            hintmask 01111100
            -101 callgsubr
            hintmask 10111100
            -53 callgsubr
            return
          </CharString>
          <CharString index="17">
            rmoveto
            -88 -36 95 88 68 23 87 83 91 33 -96 -89 -70 -26 -83 -80 hvcurveto
            return
          </CharString>
          <CharString index="18">
            -20 hstem
            -50 callgsubr
            334 107 vstem
            431 -12 rmoveto
            194 64 115 157 hvcurveto
            363 vlineto
            -53 callsubr
            -22 -15 callsubr
            -50 -49 -81 callsubr
            -59 callgsubr
            -372 vlineto
            -118 -45 -73 -98 -106 -85 47 158 vhcurveto
            358 vlineto
            -53 callsubr
            -52 -76 callsubr
            -370 vlineto
            -190 111 -75 210 vhcurveto
            return
          </CharString>
          <CharString index="19">
            rmoveto
            18 -5 5 -28 vhcurveto
            -85 -29 -33 -8 -60 -14 14 -41 rcurveline
            13 hlineto
            52 8 return
          </CharString>
          <CharString index="20">
            -20 hstemhm
            hintmask 10011100
            -78 callsubr
            hintmask 00111100
            -24 callsubr
            hintmask 10011100
            -95 callsubr
            hintmask 01011100
            7 -55 rlineto
            hintmask 00111100
            -23 callsubr
            hintmask 01011100
            -84 callgsubr
            return
          </CharString>
          <CharString index="21">
            -20 -10 -72 callgsubr
            return
          </CharString>
          <CharString index="22">
            216 -151 145 -228 -66 callgsubr
            return
          </CharString>
          <CharString index="23">
            42 55 44 hvcurveto
            -73 callsubr
            return
          </CharString>
          <CharString index="24">
            -30 callsubr
            hintmask 01110000
            -70 callsubr
            hintmask 10110000
            -78 callgsubr
            return
          </CharString>
          <CharString index="25">
            rmoveto
            31 -6 43 15 11 12 rrcurveto
            -1 51 -1 86 50 vvcurveto
            57 88 -1 -1 59 hvcurveto
            24 -10 44 -16 16 vhcurveto
            -1 -52 -72 -1 -54 hhcurveto
            50 0 90 2 55 vhcurveto
            -22 -49 -12 -14 -14 hvcurveto
            2 -47 0 -73 -49 vvcurveto
            -40 -115 1 1 -45 hvcurveto
            -11 -30 14 -44 12 -10 rrcurveto
            1 48 90 1 47 hhcurveto
            -45 -1 -112 -1 -51 vhcurveto
            return
          </CharString>
          <CharString index="26">
            2 1 -40 hvcurveto
            return
          </CharString>
          <CharString index="27">
            162 354 12 25 16 -45 callgsubr
            7 -13 -18 -8 hvcurveto
            -98 -219 -90 218 -77 callsubr
            return
          </CharString>
          <CharString index="28">
            -65 callsubr
            -29 callsubr
            41 return
          </CharString>
          <CharString index="29">
            441 248 -74 callgsubr
            return
          </CharString>
          <CharString index="30">
            -8 21 9 10 50 -63 callgsubr
            -33 -33 callgsubr
            return
          </CharString>
          <CharString index="31">
            -15 callsubr
            -50 -50 -81 callsubr
            -59 callgsubr
            return
          </CharString>
          <CharString index="32">
            286 -3 53 -33 -21 25 -21 248 64 398 -20 return
          </CharString>
          <CharString index="33">
            2 51 52 -39 callsubr
            return
          </CharString>
          <CharString index="34">
            -16 22 -5 6 -3 -3 -4 -4 rlinecurve
            return
          </CharString>
          <CharString index="35">
            rmoveto
            hintmask 11101100
            -99 callsubr
            hintmask 11011100
            -69 callsubr
          </CharString>
          <CharString index="36">
            -55 callgsubr
            57 17 -61 callgsubr
            -536 vlineto
            -20 -17 -72 callgsubr
            -44 callsubr
            2 51 20 -64 callgsubr
            447 vlineto
            423 -537 rlineto
            2 10 17 1 5 hhcurveto
            return
          </CharString>
          <CharString index="37">
            44 48 -66 callsubr
            return
          </CharString>
          <CharString index="38">
            9 -4 -12 3 -9 hhcurveto
            endchar
          </CharString>
          <CharString index="39">
            236 rmoveto
            6 3 2 13 140 -89 57 -104 return
          </CharString>
          <CharString index="40">
            208 0 62 -44 -21 23 -21 322 78 252 59 return
          </CharString>
          <CharString index="41">
            -2 -1 35 hvcurveto
            return
          </CharString>
          <CharString index="42">
            2 1 -35 hvcurveto
            return
          </CharString>
          <CharString index="43">
            -3 3 31 -28 -62 callsubr
            return
          </CharString>
          <CharString index="44">
            6 67 4 -9 52 rcurveline
            -21 -1 rlineto
            -15 hlineto
            return
          </CharString>
          <CharString index="45">
            hhcurveto
            -34 -15 -40 -14 -13 -5 -24 -9 -32 -8 -25 -6 return
          </CharString>
          <CharString index="46">
            rmoveto
            -462 -737 27 -9 47 -2 10 15 rlinecurve
            457 726 -21 16 -50 -6 -8 -3 rlinecurve
            return
          </CharString>
          <CharString index="47">
            646 rmoveto
            1 6 1 35 2 vhcurveto
            return
          </CharString>
          <CharString index="48">
            rmoveto
            8 -15 0 -2 10 -1 rrcurveto
            -76 callgsubr
            38 33 return
          </CharString>
          <CharString index="49">
            -86 callsubr
            -44 callsubr
            2 51 37 1 42 62 59 -5 59 hhcurveto
            284 155 147 223 222 -161 122 -261 hvcurveto
            -98 -51 -2 -51 hhcurveto
            return
          </CharString>
          <CharString index="50">
            10 -61 callgsubr
            return
          </CharString>
          <CharString index="51">
            -2 -1 40 hvcurveto
            return
          </CharString>
          <CharString index="52">
            -52 callgsubr
            hintmask 01111110
            -30 callgsubr
            hintmask 10111110
            -32 callgsubr
            hintmask 01111110
            44 30 -66 callsubr
            hintmask 10111110
            -51 callgsubr
            return
          </CharString>
          <CharString index="53">
            rmoveto
            -53 46 -44 53 56 46 53 49 58 -45 39 -57 -59 -40 -50 -52 vhcurveto
            61 5 rmoveto
            21 18 17 25 22 17 -11 -25 -22 -17 -19 -22 -25 -18 14 25 vhcurveto
            return
          </CharString>
          <CharString index="54">
            -41 callgsubr
            -36 callsubr
            -2 -51 return
          </CharString>
          <CharString index="55">
            -214 155 -143 229 return
          </CharString>
          <CharString index="56">
            211 168 165 208 return
          </CharString>
          <CharString index="57">
            -6 callgsubr
            hintmask 01111000
            -30 callgsubr
            hintmask 10111000
            9 callgsubr
            hintmask 01111000
            -70 callsubr
            hintmask 10111000
            -78 callgsubr
            return
          </CharString>
          <CharString index="58">
            -137 -106 -102 -137 return
          </CharString>
          <CharString index="59">
            -6 -7 -2 -14 -4 vvcurveto
            -13 4 -12 7 -6 vhcurveto
            -5 23 9 0 19 hhcurveto
            124 132 55 148 138 -121 58 -146 return
          </CharString>
          <CharString index="60">
            -18 -51 -13 13 -38 rcurveline
            50 5 15 -11 -50 vvcurveto
            return
          </CharString>
          <CharString index="61">
            0 51 -33 -21 return
          </CharString>
          <CharString index="62">
            70 41 -70 20 -28 callsubr
            rrcurveto
            23 -24 -85 32 -66 -8 callsubr
            return
          </CharString>
          <CharString index="63">
            12 -54 rlineto
            return
          </CharString>
          <CharString index="64">
            -42 callsubr
            106 122 return
          </CharString>
          <CharString index="65">
            hstemhm
            32 111 -97 97 return
          </CharString>
          <CharString index="66">
            -8 12 19 hvcurveto
            return
          </CharString>
          <CharString index="67">
            -84 callgsubr
            99 281 -46 callgsubr
            return
          </CharString>
          <CharString index="68">
            1 42 hhcurveto
            return
          </CharString>
          <CharString index="69">
            -68 15 rlineto
            -97 -39 -66 -56 -110 hhcurveto
            -155 -104 133 179 149 77 131 161 hvcurveto
            endchar
          </CharString>
          <CharString index="70">
            382 -12 72 593 69 return
          </CharString>
          <CharString index="71">
            -12 54 rlineto
            return
          </CharString>
          <CharString index="72">
            vlineto
            17 -1 1 -12 vhcurveto
            -11 -3 -26 -8 -13 -3 -23 -7 return
          </CharString>
          <CharString index="73">
            15 -12 71 177 60 91 61 return
          </CharString>
          <CharString index="74">
            -4 -12 72 317 71 return
          </CharString>
          <CharString index="75">
            35 110 -1 38 hhcurveto
            return
          </CharString>
          <CharString index="76">
            -13 -60 -1 vhcurveto
            return
          </CharString>
          <CharString index="77">
            1 37 hhcurveto
            return
          </CharString>
          <CharString index="78">
            11 -48 rlineto
            return
          </CharString>
          <CharString index="79">
            hhcurveto
            8 0 1 3 3 hvcurveto
            22 31 18 33 -5 8 return
          </CharString>
          <CharString index="80">
            -12 62 338 60 return
          </CharString>
          <CharString index="81">
            rmoveto
            -7 -20 -9 -40 -1 vhcurveto
            6 -37 rlineto
            94 hlineto
            return
          </CharString>
          <CharString index="82">
            -40 callgsubr
            361 90 return
          </CharString>
          <CharString index="83">
            4 63 33 -1 43 hhcurveto
            return
          </CharString>
          <CharString index="84">
            1 46 38 3 38 hhcurveto
            return
          </CharString>
          <CharString index="85">
            1 callsubr
            130 return
          </CharString>
          <CharString index="86">
            -47 callsubr
            -543 vlineto
            -6 callgsubr
            return
          </CharString>
          <CharString index="87">
            rmoveto
            31 -18 25 -37 -36 -20 -28 -32 -33 25 -20 31 26 29 22 35 vhcurveto
            endchar
          </CharString>
          <CharString index="88">
            rmoveto
            -41 32 -25 36 34 35 33 35 42 -32 24 -38 -32 -35 -33 -35 vhcurveto
            endchar
          </CharString>
          <CharString index="89">
            -6 callsubr
            -15 callgsubr
            hintmask 10100000
            -60 -51 3 -50 hhcurveto
            hintmask 11000000
            10 return
          </CharString>
          <CharString index="90">
            -18 vlineto
            -19 -5 -20 -6 -24 -3 rrcurveto
            -10 6 -16 7 -15 vhcurveto
            50 hlineto
            endchar
          </CharString>
          <CharString index="91">
            -47 -71 0 3 -46 hvcurveto
            return
          </CharString>
          <CharString index="92">
            -1 -42 hhcurveto
            return
          </CharString>
          <CharString index="93">
            5 7 2 19 vhcurveto
            75 hlineto
            186 105 -108 -195 hvcurveto
            endchar
          </CharString>
          <CharString index="94">
            -8 -22 11 -54 8 -8 rrcurveto
            return
          </CharString>
          <CharString index="95">
            276 137 rmoveto
            -83 216 -8 21 9 10 50 1 rlinecurve
            return
          </CharString>
          <CharString index="96">
            -1 -37 hhcurveto
            return
          </CharString>
          <CharString index="97">
            vvcurveto
            44 -44 25 -50 -61 -36 -35 -26 -15 vhcurveto
            -9 4 6 return
          </CharString>
          <CharString index="98">
            rmoveto
            2 24 -12 35 -16 16 rrcurveto
            return
          </CharString>
          <CharString index="99">
            hhcurveto
            -116 -110 -79 -162 return
          </CharString>
          <CharString index="100">
            16 -9 56 -11 12 vhcurveto
            return
          </CharString>
          <CharString index="101">
            rlineto
            hintmask 11000000
            return
          </CharString>
          <CharString index="102">
            -125 -340 -20 25 56 -41 -21 1105 62 hstemhm
            return
          </CharString>
          <CharString index="103">
            34 173 -2 21 hhcurveto
            -7 callsubr
            return
          </CharString>
          <CharString index="104">
            4 29 1 38 40 vvcurveto
            27 0 31 -10 20 vhcurveto
            return
          </CharString>
          <CharString index="105">
            vlineto
            -41 callgsubr
            return
          </CharString>
          <CharString index="106">
            -11 -30 14 -35 12 -10 rrcurveto
            return
          </CharString>
          <CharString index="107">
            -29 callsubr
            35 return
          </CharString>
          <CharString index="108">
            130 230 return
          </CharString>
          <CharString index="109">
            1 rlinecurve
            hintmask 10010000
            -10 48 rlineto
            hintmask 10100000
            -2 -45 return
          </CharString>
          <CharString index="110">
            4 -8 vhcurveto
            2 11 13 1 10 hhcurveto
            32 35 return
          </CharString>
          <CharString index="111">
            21 -21 385 45 -7 callgsubr
            return
          </CharString>
          <CharString index="112">
            737 rmoveto
            -25 callgsubr
            return
          </CharString>
          <CharString index="113">
            8 hhcurveto
            19 14 28 16 28 hhcurveto
            27 19 return
          </CharString>
          <CharString index="114">
            -267 94 558 45 return
          </CharString>
          <CharString index="115">
            -32 -165 2 -28 hhcurveto
            return
          </CharString>
          <CharString index="116">
            133 hstem
            49 131 return
          </CharString>
          <CharString index="117">
            hstemhm
            25 callsubr
            return
          </CharString>
          <CharString index="118">
            3 -20 hstemhm
            return
          </CharString>
          <CharString index="119">
            rcurveline
            4 14 -7 42 -7 15 -5 -4 return
          </CharString>
          <CharString index="120">
            rmoveto
            -3 -17 8 -36 8 -7 45 -11 return
          </CharString>
          <CharString index="121">
            623 rmoveto
            -41 callgsubr
            return
          </CharString>
          <CharString index="122">
            365 0 51 -34 -21 663 51 return
          </CharString>
          <CharString index="123">
            -86 callgsubr
            -1 return
          </CharString>
          <CharString index="124">
            vhcurveto
            -166 return
          </CharString>
          <CharString index="125">
            4 17 -11 46 -4 4 rrcurveto
            -1 return
          </CharString>
          <CharString index="126">
            -5 4 -7 -15 -7 -42 4 -14 return
          </CharString>
          <CharString index="127">
            rmoveto
            -9 -6 4 -77 14 -13 rrcurveto
            return
          </CharString>
          <CharString index="128">
            -20 hstemhm
            117 99 405 99 return
          </CharString>
          <CharString index="129">
            31 207 -4 2 hhcurveto
            endchar
          </CharString>
          <CharString index="130">
            67 hhcurveto
            hintmask 10100000
            -9 return
          </CharString>
          <CharString index="131">
            -20 hstemhm
            92 124 return
          </CharString>
          <CharString index="132">
            35 130 return
          </CharString>
        <CharString name=".notdef">
          -263 endchar
        </CharString>
        <CharString name="A">
          -75 callsubr
          hstemhm
          hintmask 10011000
          -78 callsubr
          hintmask 00111000
          -24 callsubr
          hintmask 10011000
          -95 callsubr
          hintmask 01011000
          7 -55 rlineto
          hintmask 00111000
          -23 callsubr
          hintmask 01011000
          -44 callgsubr
        </CharString>
        <CharString name="AE">
          592 1 51 -34 -21 23 -21 22 -21 231 88 2 78 252 59 2 -18 callgsubr
          501 138 176 55 hintmask 1000111001100000
          639 -100 callgsubr
          hintmask 1000110101100000
          -82 -41 1 1 -37 hvcurveto
          hintmask 1000110011100000
          -13 -35 1 -11 hhcurveto
          -55 callgsubr
          95 -8 -14 -5 -4 hvcurveto
          -313 -491 -35 -53 -29 -40 -53 -4 rlinecurve
          -22 hlineto
          hintmask 0100111001100000
          -5 -55 rlineto
          hintmask 1000111001100000
          47 39 4 38 hhcurveto
          hintmask 0100111001100000
          58 48 -4 48 hhcurveto
          1 54 rlineto
          -55 4 -18 21 10 vvcurveto
          7 17 80 128 rlineto
          227 -144 hlineto
          -86 callsubr
          -44 callsubr
          hintmask 0001111001100000
          -31 callgsubr
          hintmask 0010111001100000
          -32 callsubr
          hintmask 0001111001100000
          -106 callgsubr
          -309 -80 rmoveto
          171 274 rlineto
          -274 vlineto
          endchar
        </CharString>
        <CharString name="Aacute">
          -75 callsubr
          227 -87 callsubr
          99 281 rmoveto
          90 -217 rlineto
          -167 hlineto
          59 501 -93 callsubr
        </CharString>
        <CharString name="Acircumflex">
          -75 callsubr
          241 -18 callgsubr
          hintmask 10011010
          -78 callsubr
          hintmask 00111010
          -24 callsubr
          hintmask 10011010
          -95 callsubr
          hintmask 01011010
          7 -55 rlineto
          hintmask 00111010
          -23 callsubr
          hintmask 01011010
          -84 callgsubr
          172 684 rmoveto
          hintmask 10011100
          -99 callsubr
          hintmask 10011010
          9 -4 -12 3 -9 hhcurveto
          -73 -403 -13 callgsubr
        </CharString>
        <CharString name="Adieresis">
          286 130 280 65 200 endchar
        </CharString>
        <CharString name="Agrave">
          -75 callsubr
          229 -87 callsubr
          62 671 -89 callgsubr
          -133 -284 -13 callgsubr
        </CharString>
        <CharString name="Aring">
          -75 callsubr
          61 59 63 55 hstemhm
          258 59 70 58 hintmask 0000011110000000
          258 839 rmoveto
          -48 43 -40 49 51 44 46 44 53 -43 34 -52 -55 -37 -44 -45 vhcurveto
          59 2 rmoveto
          18 17 14 20 18 15 -8 -22 -17 -15 -16 -18 -20 -17 13 18 vhcurveto
          hintmask 1001100000000000
          124 -593 -74 callgsubr
          hintmask 0011100000000000
          -24 callsubr
          hintmask 1001100000000000
          -95 callsubr
          hintmask 0101100000000000
          7 -55 rlineto
          hintmask 0011100000000000
          -23 callsubr
          hintmask 0101100000000000
          -44 callgsubr
        </CharString>
        <CharString name="Atilde">
          -75 callsubr
          105 89 28 -20 hstemhm
          hintmask 10011110
          -78 callsubr
          hintmask 00111110
          -24 callsubr
          hintmask 10011110
          -95 callsubr
          hintmask 01011110
          7 -55 rlineto
          hintmask 00111110
          -23 callsubr
          hintmask 01011110
          -84 callgsubr
          322 637 -105 callgsubr
          -223 -356 -13 callgsubr
        </CharString>
        <CharString name="B">
          192 -4 63 -38 -21 343 54 253 64 -4 -69 callgsubr
          176 141 -96 96 -96 146 hintmask 0110111000000000
          170 710 rmoveto
          -50 -50 -81 callsubr
          -97 callgsubr
          -44 callsubr
          -74 callsubr
          hintmask 1011010010000000
          49 46 -4 47 hhcurveto
          190 95 81 134 95 -88 64 -95 18 hvcurveto
          hintmask 1011011000000000
          85 33 48 53 76 vvcurveto
          152 -160 12 -75 -47 -30 -1 -1 -26 vhcurveto
          hintmask 1010111000000000
          -1 -19 -17 -1 -21 hhcurveto
          hintmask 1011011000000000
          132 -60 rmoveto
          65 57 -38 -76 -91 -53 -48 -82 -29 -7 -1 2 -5 hvcurveto
          245 vlineto
          5 7 2 47 vhcurveto
          16 -591 rmoveto
          -33 -37 6 50 hvcurveto
          227 vlineto
          1 1 13 0 37 hhcurveto
          hintmask 1011010100000000
          82 88 -34 -114 -66 -44 -70 -107 hvcurveto
          endchar
        </CharString>
        <CharString name="C">
          307 -12 22 callgsubr
          -70 callgsubr
          -214 166 -139 229 108 82 27 30 55 hvcurveto
          9 -1 49 145 9 vvcurveto
          -38 callsubr
        </CharString>
        <CharString name="Ccedilla">
          307 -202 167 23 22 callgsubr
          237 93 -70 callgsubr
          -196 139 -133 200 -21 hvcurveto
          -14 -16 -13 -16 -8 vvcurveto
          2 -4 8 -15 0 -2 10 -1 rlinecurve
          -76 callgsubr
          26 23 99 3 76 25 52 29 rlinecurve
          -12 -1 rlineto
          21 49 145 9 hvcurveto
          -38 callsubr
        </CharString>
        <CharString name="D">
          371 -3 63 592 59 1 -20 hstemhm
          110 135 392 155 hintmask 11011000
          110 89 rmoveto
          -58 callsubr
          hintmask 10111000
          -50 -50 -81 callsubr
          -59 callgsubr
          527 -273 -4 callgsubr
          519 vlineto
          hintmask 11011000
          -14 callsubr
        </CharString>
        <CharString name="E">
          -67 callsubr
          3 -69 callgsubr
          176 55 hintmask 10011011
          248 -100 callgsubr
          hintmask 01010111
          -50 -50 -81 callsubr
          -97 callgsubr
          -44 callsubr
          hintmask 10011011
          -31 callgsubr
          hintmask 00111011
          -32 callsubr
          hintmask 10011011
          -106 callgsubr
          endchar
        </CharString>
        <CharString name="Eacute">
          -67 callsubr
          207 -69 callgsubr
          176 55 hintmask 01011111
          248 -100 callgsubr
          -50 -50 -81 callsubr
          -97 callgsubr
          -44 callsubr
          hintmask 10011111
          -31 callgsubr
          hintmask 00111111
          -32 callsubr
          hintmask 10011111
          -106 callgsubr
          18 414 -93 callsubr
        </CharString>
        <CharString name="Ecircumflex">
          -67 callsubr
          6 callgsubr
          176 55 hintmask 0101101110000000
          248 -100 callgsubr
          -50 -50 -81 callsubr
          -97 callgsubr
          -44 callsubr
          hintmask 1001101110000000
          -31 callgsubr
          hintmask 0011101110000000
          -32 callsubr
          hintmask 1001101110000000
          -106 callgsubr
          138 533 rmoveto
          hintmask 1001110110000000
          -99 callsubr
          hintmask 1001101110000000
          -69 callsubr
        </CharString>
        <CharString name="Edieresis">
          -67 callsubr
          61 138 -62 callgsubr
          -74 -26 callgsubr
          -70 55 hintmask 1001111010000000
          248 -60 callsubr
          hintmask 1001110110000000
          -98 callsubr
          -50 -50 -81 callsubr
          -55 callgsubr
          hintmask 0101111010000000
          -96 callgsubr
          -44 callsubr
          hintmask 1001111010000000
          -31 callgsubr
          hintmask 0011111010000000
          -32 callsubr
          hintmask 1001111001000000
          -106 callgsubr
          hintmask 1001110110000000
          -74 440 -103 callgsubr
          vhcurveto
          hintmask 1001111001000000
          43 -28 25 -42 vhcurveto
          hintmask 1001111010000000
          -38 -30 -34 -36 hvcurveto
          endchar
        </CharString>
        <CharString name="Egrave">
          -67 callsubr
          209 -69 callgsubr
          176 55 hintmask 01011111
          248 -100 callgsubr
          -50 -50 -81 callsubr
          -97 callgsubr
          -44 callsubr
          hintmask 10011111
          -31 callgsubr
          hintmask 00111111
          -32 callsubr
          hintmask 10011111
          -106 callgsubr
          -12 520 -89 callgsubr
          endchar
        </CharString>
        <CharString name="Eth">
          373 -3 63 279 57 256 59 1 -20 hstemhm
          112 135 392 155 hintmask 11101100
          33 397 rmoveto
          -8 -22 11 -30 8 -8 rrcurveto
          10 28 0 1 30 hvcurveto
          -249 vlineto
          -58 callsubr
          hintmask 11011100
          -50 -50 -81 callsubr
          -59 callgsubr
          -226 vlineto
          -34 -32 1 -13 hhcurveto
          606 -48 -4 callgsubr
          213 vlineto
          -1 61 95 -1 16 hhcurveto
          16 -9 32 -11 12 vhcurveto
          -19 -78 -2 -55 hhcurveto
          250 vlineto
          hintmask 11101100
          -14 callsubr
        </CharString>
        <CharString name="Euro">
          125 -11 77 184 66 45 70 -1 -20 207 76 hstemhm
          hintmask 11101000
          177 316 rmoveto
          -1 10 1 26 9 vvcurveto
          193 hlineto
          7 29 -17 34 -6 7 rrcurveto
          hintmask 11011000
          -56 -60 -1 -56 hhcurveto
          89 14 46 98 107 hhcurveto
          62 44 -36 -71 25 hvcurveto
          54 -6 rlineto
          5 36 1 26 24 vvcurveto
          29 -2 19 -8 19 vhcurveto
          10 -23 -76 26 -77 hhcurveto
          -150 -111 -120 -143 -34 hvcurveto
          -84 hlineto
          hintmask 11101000
          -27 13 -40 19 -2 vhcurveto
          44 hlineto
          -1 -10 0 -30 -5 vvcurveto
          -65 hlineto
          -27 13 -37 19 -2 vhcurveto
          39 hlineto
          -155 24 108 -106 176 hhcurveto
          68 56 23 27 28 hvcurveto
          11 18 24 93 11 vvcurveto
          -58 6 rlineto
          -60 -22 -35 -41 -61 hhcurveto
          -111 -58 76 108 -20 hvcurveto
          184 hlineto
          7 29 -13 32 -6 5 rrcurveto
          endchar
        </CharString>
        <CharString name="F">
          146 -46 callsubr
          324 78 252 59 3 -69 callgsubr
          176 55 hintmask 10110110
          248 646 rmoveto
          1 6 2 35 2 vhcurveto
          149 hlineto
          -67 callgsubr
          3 25 2 48 34 vvcurveto
          29 -5 39 -7 20 vhcurveto
          -415 hlineto
          hintmask 10101110
          -50 -50 -81 callsubr
          -97 callgsubr
          hintmask 01110110
          -44 callsubr
          hintmask 10110110
          -74 callsubr
          hintmask 01110110
          50 80 -56 callsubr
          hintmask 10110110
          -13 54 rlineto
          -87 -56 callgsubr
          234 -98 callgsubr
          endchar
        </CharString>
        <CharString name="G">
          359 -12 72 220 51 322 69 hstem
          40 156 387 129 vstem
          432 653 rmoveto
          62 58 -18 -20 32 hvcurveto
          34 -21 28 -37 10 -56 50 -9 rcurveline
          4 39 2 35 34 vvcurveto
          36 0 24 -12 25 vhcurveto
          -38 5 -26 5 -24 5 rrcurveto
          10 -46 -51 12 -69 hhcurveto
          -227 -179 -141 -240 -206 143 -147 249 123 92 34 31 55 hvcurveto
          -7 -1 rlineto
          21 7 5 38 40 vvcurveto
          107 vlineto
          -53 callsubr
          -72 -15 callsubr
          -50 -80 -81 callsubr
          -55 callgsubr
          107 -57 callsubr
          -106 vlineto
          -63 -79 -15 -58 -164 -86 133 179 149 81 132 155 vhcurveto
          endchar
        </CharString>
        <CharString name="H">
          376 -46 callsubr
          325 77 260 51 11 callsubr
          115 138 331 138 hintmask 10110110
          253 14 callsubr
          hintmask 10101110
          -36 callsubr
          hintmask 10110110
          -48 callgsubr
          hintmask 10101110
          -50 -50 -81 callsubr
          hintmask 10110110
          13 -54 rlineto
          57 10 -14 -22 hvcurveto
          -536 -80 callgsubr
          235 331 -235 -80 callgsubr
          536 -2 callsubr
          hintmask 10101110
          -36 callsubr
          hintmask 10110110
          -48 callgsubr
          hintmask 10101110
          -50 -50 -81 callsubr
          hintmask 10110110
          -59 callgsubr
          -224 -331 vlineto
          endchar
        </CharString>
        <CharString name="I">
          -103 -37 callgsubr
          3 -69 callgsubr
          hintmask 10101000
          248 623 rmoveto
          -82 callgsubr
          endchar
        </CharString>
        <CharString name="Iacute">
          -103 -37 callgsubr
          207 -69 callgsubr
          hintmask 10111000
          248 623 rmoveto
          -53 callsubr
          -52 -1 -42 hhcurveto
          -50 -50 2 1 -40 hvcurveto
          -97 callgsubr
          hintmask 01111000
          -44 callsubr
          hintmask 10111000
          -74 callsubr
          hintmask 01111000
          -77 callgsubr
          hintmask 10111000
          -86 callgsubr
          -134 726 -93 callsubr
        </CharString>
        <CharString name="Icircumflex">
          -103 -37 callgsubr
          6 callgsubr
          hintmask 10101100
          248 623 rmoveto
          -53 callsubr
          -52 -1 -42 hhcurveto
          -50 -50 2 1 -40 hvcurveto
          -97 callgsubr
          hintmask 01101100
          -44 callsubr
          hintmask 10101100
          -74 callsubr
          hintmask 01101100
          -77 callgsubr
          hintmask 10101100
          -86 callgsubr
          -27 845 rmoveto
          hintmask 10110100
          -99 callsubr
          hintmask 10101100
          -69 callsubr
        </CharString>
        <CharString name="Idieresis">
          -103 -37 callgsubr
          61 138 hstemhm
          19 139 -48 138 -47 138 hintmask 10110100
          248 623 rmoveto
          -53 callsubr
          -52 -1 -42 hhcurveto
          -50 -50 2 1 -40 hvcurveto
          -97 callgsubr
          hintmask 01111010
          -44 callsubr
          hintmask 10111010
          -74 callsubr
          hintmask 01111010
          -77 callgsubr
          hintmask 10110100
          -86 callgsubr
          hintmask 10111010
          -229 752 -105 callsubr
        </CharString>
        <CharString name="Igrave">
          -103 -37 callgsubr
          209 -69 callgsubr
          hintmask 10111000
          248 623 rmoveto
          -53 callsubr
          -52 -1 -42 hhcurveto
          -50 -50 2 1 -40 hvcurveto
          -97 callgsubr
          hintmask 01111000
          -44 callsubr
          hintmask 10111000
          -74 callsubr
          hintmask 01111000
          -77 callgsubr
          hintmask 10111000
          -86 callgsubr
          -167 832 -89 callgsubr
          endchar
        </CharString>
        <CharString name="J">
          -89 -235 -21 915 51 11 callsubr
          123 140 hintmask 11010000
          263 14 callsubr
          hintmask 10110000
          -36 callsubr
          hintmask 11010000
          -48 callgsubr
          hintmask 10110000
          -50 -50 -81 callsubr
          hintmask 11010000
          -59 callgsubr
          -4 -543 -1 -160 -28 -91 -66 -48 rlinecurve
          -8 -5 -3 -5 -2 vvcurveto
          -2 2 -4 3 -4 vhcurveto
          6 -8 4 -5 3 -1 7 -1 rlinecurve
          100 45 123 104 173 vvcurveto
          endchar
        </CharString>
        <CharString name="K">
          261 -37 callgsubr
          3 -69 callgsubr
          hintmask 10101000
          540 -1 rmoveto
          1 27 25 0 18 hhcurveto
          hintmask 01101000
          88 -10 -2 -1 49 hvcurveto
          hintmask 10101000
          -13 54 rlineto
          -46 -22 13 23 -24 hvcurveto
          -279 302 222 237 22 24 39 7 69 2 rlinecurve
          hintmask 10011000
          -36 callsubr
          hintmask 10101000
          -48 callgsubr
          hintmask 10011000
          -50 -50 -81 callsubr
          hintmask 10101000
          -55 callgsubr
          42 24 -1 -11 -12 -54 -60 -23 -25 hvcurveto
          -46 -49 -69 -72 -47 -45 rrcurveto
          239 vlineto
          -82 callgsubr
          225 1 vlineto
          21 256 -296 -17 14 hvcurveto
          endchar
        </CharString>
        <CharString name="L">
          171 0 61 -43 -21 22 -21 661 51 11 callsubr
          111 140 hintmask 10010100
          251 14 callsubr
          hintmask 10001100
          -36 callsubr
          hintmask 10010100
          -48 callgsubr
          hintmask 10001100
          -50 -50 -81 callsubr
          hintmask 01010100
          -59 callgsubr
          -4 -536 rlineto
          -86 callsubr
          -44 callsubr
          hintmask 10010100
          -31 callgsubr
          hintmask 00110100
          35 84 -2 38 hhcurveto
          hintmask 10010100
          79 77 2 75 hhcurveto
          21 51 179 -83 callgsubr
          -21 -28 6 47 hvcurveto
          endchar
        </CharString>
        <CharString name="M">
          531 0 51 -38 -21 667 51 4 -20 hstemhm
          117 99 528 138 hintmask 10101100
          882 623 rmoveto
          -53 callsubr
          -20 -15 callsubr
          hintmask 10011100
          -38 -33 3 1 -28 hvcurveto
          -29 -110 -232 -14 -32 vhcurveto
          -6 -14 -62 -144 -31 -70 -37 66 -69 131 -14 37 -42 97 -59 90 -33 99 rrcurveto
          hintmask 10101100
          -5 -43 -33 2 -14 hhcurveto
          -50 -50 -81 callsubr
          -55 callgsubr
          57 17 -61 callgsubr
          -536 vlineto
          -20 -17 -72 callgsubr
          -44 callsubr
          2 51 20 -64 callgsubr
          437 vlineto
          hintmask 01101100
          264 -532 26 12 76 161 85 176 77 162 rlinecurve
          -416 vlineto
          hintmask 10101100
          -86 callsubr
          -44 callsubr
          2 51 52 -64 callgsubr
          endchar
        </CharString>
        <CharString name="N">
          15 callsubr
          3 21 callsubr
          hintmask 10101100
          720 623 rmoveto
          20 17 -65 callgsubr
          hintmask 10011100
          -36 callsubr
          hintmask 10101100
          -2 -51 -20 -15 callsubr
          hintmask 10011100
          -50 -50 -81 callsubr
          hintmask 10101100
          -59 callgsubr
          1 -395 -35 44 -97 128 -35 43 rlinecurve
          hintmask 10011100
          20 callgsubr
          hintmask 10101100
          -5 -43 -33 2 -14 hhcurveto
          hintmask 10011100
          -50 -50 -81 callsubr
          hintmask 10101100
          -71 callsubr
          hintmask 01101100
          7 28 -1 -3 15 hvcurveto
          endchar
        </CharString>
        <CharString name="Ntilde">
          15 callsubr
          82 89 28 21 callsubr
          hintmask 10111110
          720 623 rmoveto
          20 17 -65 callgsubr
          -36 callsubr
          -2 -51 -20 -76 callsubr
          1 -395 -35 44 -97 128 -35 43 rlinecurve
          20 callgsubr
          -5 -43 -33 2 -14 hhcurveto
          -50 -50 -81 callsubr
          -71 callsubr
          hintmask 01111110
          7 28 -1 -3 15 hvcurveto
          -101 886 -104 callgsubr
        </CharString>
        <CharString name="O">
          -37 callsubr
          -101 callsubr
          endchar
        </CharString>
        <CharString name="OE">
          656 -12 74 -62 62 -42 -21 322 78 260 51 -51 63 hstemhm
          11 callgsubr
          374 138 176 55 hintmask 1001101110000000
          707 -100 callgsubr
          hintmask 1001011110000000
          -77 -52 12 -76 hhcurveto
          -66 callgsubr
          -52 callsubr
          hvcurveto
          hintmask 0101101110000000
          70 75 12 63 hhcurveto
          hintmask 0011101110000000
          -32 callsubr
          hintmask 0101101110000000
          -106 callgsubr
          -263 -348 rmoveto
          -174 -75 168 164 147 67 129 166 61 29 -3 -9 20 hvcurveto
          21 -9 10 -10 -22 vvcurveto
          -519 vlineto
          -9 -2 -8 -8 -6 vhcurveto
          -13 -29 -38 0 -48 hhcurveto
          endchar
        </CharString>
        <CharString name="Oacute">
          -37 callsubr
          195 -20 -101 callsubr
          -89 753 -93 callsubr
        </CharString>
        <CharString name="Ocircumflex">
          -37 callsubr
          209 -18 callgsubr
          11 callgsubr
          453 155 hintmask 11011100
          -106 callsubr
          14 872 -72 callsubr
        </CharString>
        <CharString name="Odieresis">
          -37 callsubr
          49 138 hstem
          11 callgsubr
          66 -26 callgsubr
          67 -104 callsubr
          -183 779 -105 callsubr
        </CharString>
        <CharString name="Ograve">
          -37 callsubr
          197 -20 -101 callsubr
          -130 859 -89 callgsubr
          endchar
        </CharString>
        <CharString name="Oslash">
          352 -12 72 593 69 hstem
          11 callgsubr
          453 155 vstem
          40 345 rmoveto
          -106 38 -88 66 -63 vhcurveto
          -96 -122 27 -9 39 -7 25 4 rlinecurve
          68 87 rlineto
          -34 60 73 -19 84 hhcurveto
          -51 callsubr
          121 -48 99 -82 63 hvcurveto
          77 99 -21 16 -45 11 -8 -3 rlinecurve
          -66 -84 rlineto
          25 -54 -62 14 -70 hhcurveto
          -66 callgsubr
          hvcurveto
          404 -285 rmoveto
          -73 -55 27 44 -40 hvcurveto
          319 412 rlineto
          35 -58 18 -77 -82 vvcurveto
          -147 -74 -119 -130 vhcurveto
          -249 323 rmoveto
          147 79 123 129 58 48 -19 -32 37 vhcurveto
          -315 -402 rlineto
          -25 54 -11 64 65 vvcurveto
          endchar
        </CharString>
        <CharString name="Otilde">
          -37 callsubr
          73 89 28 -20 -101 callsubr
          150 825 -104 callgsubr
        </CharString>
        <CharString name="P">
          138 -46 callsubr
          318 58 276 65 -62 callgsubr
          202 134 hintmask 10111100
          170 710 rmoveto
          -50 -2 -50 4 -40 1 13 -54 rcurveline
          -96 callgsubr
          hintmask 01111100
          -44 callsubr
          hintmask 10111100
          -74 callsubr
          hintmask 01111100
          50 80 -56 callsubr
          hintmask 10111100
          -13 54 rlineto
          -87 -56 callgsubr
          555 vlineto
          5 7 2 48 90 57 -36 -90 15 callgsubr
          vhcurveto
          -48 callsubr
          -11 -41 -1 -3 -95 hvcurveto
          endchar
        </CharString>
        <CharString name="Q">
          388 -200 85 768 69 hstem
          11 callgsubr
          452 156 vstem
          291 7 rmoveto
          11 -3 41 -14 43 -12 83 -39 rlinecurve
          23 -11 23 -13 23 -13 -1 1 rcurveline
          -43 78 115 -60 137 hhcurveto
          85 98 32 38 59 hvcurveto
          -19 25 -3 4 -2 3 -6 3 rlinecurve
          -4 2 -5 0 -15 -5 rrcurveto
          -10 -25 -68 -7 -24 hhcurveto
          -90 -90 41 30 -64 hvcurveto
          -41 20 -53 19 -68 7 rrcurveto
          172 53 99 145 161 vvcurveto
          -85 callsubr
          -169 98 -126 154 -44 vhcurveto
          152 54 -85 callgsubr
          78 -150 -177 -147 -73 -119 -130 hvcurveto
          endchar
        </CharString>
        <CharString name="R">
          254 -46 callsubr
          306 54 293 64 -4 -69 callgsubr
          202 136 hintmask 10101110
          170 710 rmoveto
          -50 -50 -81 callsubr
          13 -54 rlineto
          57 10 -14 -22 hvcurveto
          -536 -80 callgsubr
          216 65 vlineto
          -1 0 -1 0 hvcurveto
          18 -24 52 -77 49 -74 32 -48 34 -53 20 -28 rrcurveto
          1 41 37 1 36 hhcurveto
          hintmask 01110110
          38 30 -3 31 hhcurveto
          -19 52 -39 2 -21 11 -25 24 rlinecurve
          -21 20 -50 73 -49 67 rrcurveto
          1 hlineto
          -20 30 -21 27 -20 26 rrcurveto
          82 33 58 61 95 vvcurveto
          140 -121 56 -146 -12 -35 -1 -1 -33 vhcurveto
          hintmask 10101110
          -1 -30 -29 -1 -10 hhcurveto
          78 -67 rmoveto
          hintmask 10110110
          5 9 2 48 79 66 -42 -91 -95 -52 -65 -108 -7 -18 0 1 -17 vhcurveto
          endchar
        </CharString>
        <CharString name="S">
          124 -12 72 434 228 -69 69 hstemhm
          59 141 203 142 -96 68 -68 96 hintmask 10110010
          40 217 rmoveto
          5 -59 17 -103 6 -20 rrcurveto
          -21 58 89 -26 83 hhcurveto
          153 94 96 116 hvcurveto
          219 -345 5 140 vvcurveto
          58 41 31 51 115 38 -73 -85 4 vhcurveto
          63 -2 rlineto
          hintmask 11010100
          -3 callsubr
          9 -19 -81 35 -112 hhcurveto
          -115 -121 -54 -132 hvcurveto
          hintmask 11011000
          -218 344 9 -159 vvcurveto
          -60 -37 -48 -75 -98 -49 47 124 -29 vhcurveto
          endchar
        </CharString>
        <CharString name="T">
          222 -46 callsubr
          646 67 8 -20 hstemhm
          262 138 hintmask 10011000
          652 515 rmoveto
          10 48 1 29 29 vvcurveto
          28 -2 23 -4 46 vhcurveto
          hintmask 10101000
          -10 -42 -39 2 -20 hhcurveto
          -434 hlineto
          hintmask 10011000
          -19 -35 1 7 -34 hvcurveto
          -8 -30 -4 -32 -34 vvcurveto
          -36 3 -34 7 -34 vhcurveto
          46 1 9 51 8 35 19 15 rlinecurve
          hintmask 10101000
          20 21 44 3 50 hhcurveto
          33 -556 hlineto
          -20 -10 -14 -79 -2 vhcurveto
          hintmask 01101000
          -44 callsubr
          hintmask 10101000
          2 51 62 -39 callsubr
          hintmask 01101000
          50 60 -56 callsubr
          hintmask 10101000
          -13 54 rlineto
          -67 -56 callgsubr
          556 55 vlineto
          43 50 -8 -15 21 hvcurveto
          21 -15 9 -39 6 -44 rrcurveto
          endchar
        </CharString>
        <CharString name="Thorn">
          106 -46 callsubr
          174 58 280 61 89 51 11 callsubr
          96 138 206 134 hintmask 10111011
          234 14 callsubr
          hintmask 10110111
          -36 callsubr
          hintmask 10111011
          -48 callgsubr
          hintmask 10110111
          -50 -50 -81 callsubr
          hintmask 10111011
          -97 callgsubr
          hintmask 01111011
          -44 callsubr
          hintmask 10111011
          -74 callsubr
          hintmask 01111011
          -77 callgsubr
          hintmask 10111011
          -86 callgsubr
          404 vlineto
          3 2 -6 15 63 hhcurveto
          90 57 -45 -85 15 callgsubr
          hvcurveto
          -48 callsubr
          -8 -22 0 -2 -43 hvcurveto
          endchar
        </CharString>
        <CharString name="U">
          -24 callgsubr
          3 -69 callgsubr
          334 107 hintmask 11011000
          431 -12 rmoveto
          194 64 115 157 hvcurveto
          363 -2 callsubr
          hintmask 10111000
          -36 callsubr
          hintmask 11011000
          -2 -51 -22 -15 callsubr
          hintmask 10111000
          -50 -49 -81 callsubr
          hintmask 11011000
          -59 callgsubr
          -372 vlineto
          -118 -45 -73 -98 -106 -85 47 158 vhcurveto
          358 -2 callsubr
          hintmask 10111000
          -36 callsubr
          hintmask 11011000
          -48 callgsubr
          hintmask 10111000
          -50 -50 -81 callsubr
          hintmask 11011000
          -59 callgsubr
          -370 vlineto
          -190 111 -75 210 vhcurveto
          endchar
        </CharString>
        <CharString name="Uacute">
          -24 callgsubr
          207 -89 callsubr
          -72 825 -93 callsubr
        </CharString>
        <CharString name="Ucircumflex">
          -24 callgsubr
          6 callgsubr
          334 107 hintmask 11011100
          431 -12 rmoveto
          194 64 115 157 hvcurveto
          363 vlineto
          -53 callsubr
          -22 -15 callsubr
          -50 -49 -81 callsubr
          -59 callgsubr
          -372 vlineto
          -118 -45 -73 -98 -106 -85 47 158 vhcurveto
          358 vlineto
          -53 callsubr
          -52 -76 callsubr
          -370 vlineto
          -190 111 -75 210 vhcurveto
          27 944 -72 callsubr
        </CharString>
        <CharString name="Udieresis">
          -24 callgsubr
          61 138 hstem
          -50 callgsubr
          12 -26 callgsubr
          2 107 vstem
          431 -12 rmoveto
          194 64 115 157 hvcurveto
          363 vlineto
          -53 callsubr
          -22 -15 callsubr
          -50 -49 -81 callsubr
          -59 callgsubr
          -372 vlineto
          -118 -45 -73 -98 -106 -85 47 158 vhcurveto
          358 vlineto
          -53 callsubr
          -52 -76 callsubr
          -370 vlineto
          -190 111 -75 210 vhcurveto
          -171 851 -105 callsubr
        </CharString>
        <CharString name="Ugrave">
          -24 callgsubr
          209 -89 callsubr
          -141 931 -89 callgsubr
          endchar
        </CharString>
        <CharString name="V">
          261 21 -21 660 50 -7 callgsubr
          239 611 rmoveto
          42 -15 21 7 23 callsubr
          53 -6 callsubr
          -6 -63 -33 3 -5 callgsubr
          -53 rlineto
          50 21 -25 5 callgsubr
          209 562 21 55 17 36 73 7 rlinecurve
          hintmask 10100000
          -7 53 -18 callsubr
          -53 65 -1 51 -27 7 callgsubr
        </CharString>
        <CharString name="W">
          617 21 -21 659 51 -7 callgsubr
          595 611 rmoveto
          42 -15 21 6 23 callsubr
          54 -6 callsubr
          -2 -62 -34 -1 -43 hhcurveto
          -47 -67 1 1 -50 hvcurveto
          25 callgsubr
          21 -24 -58 22 hvcurveto
          40 -109 -98 -281 -163 424 rlineto
          42 -15 21 6 23 callsubr
          54 -6 callsubr
          -1 -62 -34 -2 -5 callgsubr
          -54 rlineto
          50 21 -24 5 callgsubr
          136 365 135 -365 rlineto
          85 hlineto
          209 562 21 55 17 35 73 7 rlinecurve
          hintmask 10100000
          -7 54 -18 callsubr
          -54 65 -1 51 -26 7 callgsubr
        </CharString>
        <CharString name="X">
          294 1 51 -35 -21 22 -21 24 -21 658 52 3 -18 callgsubr
          hintmask 10001000
          491 87 rmoveto
          -1 1 rlineto
          -33 17 -33 -3 -55 hhcurveto
          hintmask 01001000
          14 -56 rlineto
          hintmask 10001000
          6 63 33 -1 43 hhcurveto
          hintmask 00101000
          46 91 -1 -3 46 hvcurveto
          hintmask 10001000
          -15 55 rlineto
          -48 -21 22 48 -36 hvcurveto
          -199 262 189 226 rlineto
          23 18 31 25 67 hhcurveto
          hintmask 10000010
          -12 56 rlineto
          hintmask 10001000
          -1 -49 -41 -3 -40 hhcurveto
          hintmask 10000100
          -57 -48 3 -48 hhcurveto
          hintmask 10001000
          11 -55 56 -7 21 -16 -26 -36 rlinecurve
          -123 -148 -117 162 rlineto
          29 -20 35 16 55 hhcurveto
          hintmask 10000100
          -12 55 rlineto
          hintmask 10001000
          -6 -64 -53 3 -42 hhcurveto
          hintmask 10000100
          -16 callsubr
          hintmask 10001000
          11 -55 rlineto
          46 27 -27 -53 36 hvcurveto
          181 -235 -201 -245 -31 -38 -40 -3 -32 -5 rlinecurve
          hintmask 00101000
          14 -55 rlineto
          hintmask 00011000
          1 49 40 2 40 hhcurveto
          hintmask 00101000
          58 48 -3 48 hhcurveto
          -16 54 -27 3 -59 8 28 39 rlinecurve
          143 176 rlineto
          endchar
        </CharString>
        <CharString name="Y">
          302 -46 callsubr
          663 50 11 callsubr
          320 137 hintmask 10101000
          269 16 callgsubr
          hintmask 10011000
          -9 53 rlineto
          hintmask 10101000
          -6 -63 -43 3 -43 hhcurveto
          hintmask 10011000
          -16 callsubr
          hintmask 10101000
          25 callgsubr
          36 -32 -50 37 hvcurveto
          186 -268 rlineto
          -223 vlineto
          -86 callsubr
          hintmask 01101000
          -44 callsubr
          hintmask 10101000
          -74 callsubr
          hintmask 01101000
          -77 callgsubr
          hintmask 10101000
          16 callsubr
          247 167 228 rlineto
          50 41 40 48 58 hhcurveto
          hintmask 10011000
          -7 53 rlineto
          hintmask 10101000
          -15 callgsubr
          hintmask 10011000
          -60 -41 3 -50 hhcurveto
          hintmask 10101000
          -10 callgsubr
          endchar
        </CharString>
        <CharString name="Yacute">
          243 -46 callsubr
          663 50 3 -20 224 -20 hstemhm
          290 137 hintmask 10101100
          239 16 callgsubr
          hintmask 10011100
          -9 53 rlineto
          hintmask 10101100
          -6 -63 -43 3 -43 hhcurveto
          hintmask 10011100
          -16 callsubr
          hintmask 10101100
          25 callgsubr
          36 -32 -50 37 hvcurveto
          186 -268 rlineto
          -223 vlineto
          -86 callsubr
          hintmask 01101100
          -44 callsubr
          hintmask 10101100
          -74 callsubr
          hintmask 01101100
          -77 callgsubr
          hintmask 10101100
          16 callsubr
          247 167 228 rlineto
          50 41 40 48 58 hhcurveto
          hintmask 10011100
          -7 53 rlineto
          hintmask 10101100
          -15 callgsubr
          hintmask 10011100
          -60 -41 3 -50 hhcurveto
          hintmask 10101100
          -10 callgsubr
          -18 426 -93 callsubr
        </CharString>
        <CharString name="Z">
          224 0 69 -59 -21 658 63 12 -20 hstemhm
          hintmask 10010000
          432 hmoveto
          57 91 -1 -3 75 hvcurveto
          7 32 3 34 36 vvcurveto
          32 -2 42 -4 39 vhcurveto
          -57 -7 rlineto
          -97 -12 -20 -38 -52 hhcurveto
          -294 hlineto
          5 11 16 25 19 29 53 78 112 165 228 315 rrcurveto
          1 -4 12 -9 17 vhcurveto
          hintmask 10100000
          -12 -42 -26 0 -20 hhcurveto
          -402 hlineto
          hintmask 10010000
          -19 -33 2 10 -34 hvcurveto
          -9 -29 -3 -35 -35 vvcurveto
          -37 3 -35 6 -31 vhcurveto
          53 2 9 50 9 35 18 15 rlinecurve
          hintmask 01100000
          21 22 35 4 51 hhcurveto
          198 hlineto
          -445 -629 rlineto
          -2 6 -10 10 -17 vhcurveto
          hintmask 10100000
          12 41 40 -1 20 hhcurveto
          endchar
        </CharString>
        <CharString name="a">
          -33 callsubr
          -43 callsubr
          hintmask 11011000
          -107 callsubr
          hintmask 11101000
          -102 callsubr
          endchar
        </CharString>
        <CharString name="aacute">
          -33 callsubr
          274 -92 callsubr
          -209 473 -93 callgsubr
        </CharString>
        <CharString name="acircumflex">
          -33 callsubr
          246 -20 21 -20 -43 callsubr
          hintmask 11010110
          -107 callsubr
          hintmask 11011010
          -102 callsubr
          -136 627 rmoveto
          hintmask 11101010
          -99 callgsubr
          hintmask 11011010
          -69 callsubr
        </CharString>
        <CharString name="acute">
          -207 533 -21 210 -20 hstem
          33 541 -93 callgsubr
        </CharString>
        <CharString name="acute.cap">
          -207 605 -21 147 -20 hstem
          26 627 -93 callsubr
        </CharString>
        <CharString name="adieresis">
          -33 callsubr
          90 138 -42 callsubr
          -83 139 50 122 hintmask 11101010
          -107 callsubr
          hintmask 11110010
          -102 callsubr
          hintmask 11100110
          -327 538 -105 callsubr
        </CharString>
        <CharString name="ae">
          236 -12 71 330 59 -42 callsubr
          406 115 hintmask 11011000
          655 256 rmoveto
          6 3 2 13 120 -89 57 -104 -40 -51 -16 -34 -42 hvcurveto
          33 -22 -36 17 -47 hhcurveto
          -40 -103 -36 -28 -25 hvcurveto
          -94 callgsubr
          23 -43 -72 hvcurveto
          -10 vlineto
          -1 -6 -1 -7 -7 vvcurveto
          hintmask 11101000
          -165 -31 -60 -37 -77 vvcurveto
          -57 45 -42 86 58 47 21 44 47 vhcurveto
          -40 37 54 -25 73 hhcurveto
          -90 callgsubr
          -94 -47 86 57 1 hvcurveto
          -3 50 rmoveto
          67 -7 35 70 62 hhcurveto
          55 28 -53 -40 hvcurveto
          -338 -236 rmoveto
          -38 -30 17 36 23 20 25 96 22 hvcurveto
          4 -32 8 -31 15 -27 rrcurveto
          -15 -17 -27 -18 -31 hhcurveto
          endchar
        </CharString>
        <CharString name="agrave">
          -33 callsubr
          255 -92 callsubr
          -195 635 rmoveto
          -40 -47 -25 -61 callgsubr
          -3 -2 -2 -3 2 -3 163 -163 rcurveline
          22 5 11 12 3 26 callgsubr
        </CharString>
        <CharString name="ampersand">
          361 -12 73 -42 -21 401 52 -3 -20 237 57 hstemhm
          27 129 -66 118 142 100 hintmask 10101011
          285 722 rmoveto
          -104 -96 -73 -105 5 hvcurveto
          3 -73 38 -44 38 -40 rrcurveto
          hintmask 10101101
          -102 -67 -40 -65 -86 vvcurveto
          -93 102 -88 142 83 71 22 76 74 vhcurveto
          116 -87 rlineto
          1 23 40 1 27 hhcurveto
          hintmask 01101101
          48 21 -3 40 hhcurveto
          -8 46 rlineto
          -32 -34 25 17 -22 hvcurveto
          -145 115 85 167 rlineto
          18 9 26 13 68 hhcurveto
          -13 52 rlineto
          -16 -32 -1 -15 hhcurveto
          hintmask 10011101
          -1 -25 -22 -1 -26 hhcurveto
          -28 -23 1 1 -23 hvcurveto
          hintmask 10101101
          -14 -46 1 -16 hhcurveto
          17 -52 rlineto
          40 30 -7 -15 -26 -15 -62 -21 -46 hvcurveto
          -188 169 rlineto
          84 61 41 55 62 vvcurveto
          81 -67 51 -98 vhcurveto
          158 -589 rmoveto
          -45 -34 -45 -27 -73 hhcurveto
          -77 -58 67 74 47 32 61 33 31 hvcurveto
          58 324 rmoveto
          51 20 -43 -37 -38 -30 -51 -43 -41 hvcurveto
          hintmask 10101011
          -34 34 -35 53 43 vvcurveto
          37 24 43 47 vhcurveto
          endchar
        </CharString>
        <CharString name="aring">
          -33 callsubr
          63 63 77 59 -42 callsubr
          -19 61 64 122 -104 58 hintmask 1111001010000000
          124 608 -54 callsubr
          69 -531 rmoveto
          -12 -13 -25 -10 -20 hhcurveto
          hintmask 1111010100000000
          -107 callgsubr
          hintmask 1111100100000000
          -102 callsubr
          endchar
        </CharString>
        <CharString name="asciicircum">
          372 292 -21 420 -20 22 -20 hstemhm
          hintmask 10100000
          290 693 rmoveto
          hintmask 11000000
          -30 -16 -2 -15 hhcurveto
          -188 -382 rlineto
          -7 2 -1 5 -5 vhcurveto
          9 -10 29 -10 15 -5 164 313 rcurveline
          174 -302 14 5 26 11 12 9 rlinecurve
          4 3 3 5 7 vvcurveto
          -187 354 rlineto
          hintmask 10100000
          10 -5 -5 7 -11 hhcurveto
          endchar
        </CharString>
        <CharString name="asciitilde">
          158 124 90 20 91 hstem
          549 268 rmoveto
          8 0 19 -7 10 vhcurveto
          12 -20 -38 6 -9 hhcurveto
          -44 3 -16 -65 -32 -68 -66 111 -101 hhcurveto
          -102 -36 -113 -76 17 hvcurveto
          11 -4 49 2 13 4 rrcurveto
          46 -2 4 50 44 64 80 -110 92 hhcurveto
          84 36 86 58 hvcurveto
          endchar
        </CharString>
        <CharString name="asterisk">
          -99 366 -21 hstem
          96 628 rmoveto
          -22 -3 -23 -4 -8 -21 94 -77 rcurveline
          -101 -21 -12 -31 -8 -13 20 -17 rlinecurve
          118 45 -24 -105 12 -14 17 -18 22 -4 rlinecurve
          12 10 59 10 50 vhcurveto
          -30 37 45 -34 5 hhcurveto
          9 35 8 14 9 hvcurveto
          -26 22 -48 35 -30 24 38 12 50 7 3 4 9 11 10 31 -15 19 -19 -8 -49 -14 -43 -12 rrcurveto
          10 54 16 58 4 vvcurveto
          -13 20 -39 -21 -11 -8 -1 -12 -5 -47 -9 -40 rrcurveto
          endchar
        </CharString>
        <CharString name="at">
          386 -187 249 -74 74 -49 -21 366 44 129 48 hstemhm
          60 120 540 120 hintmask 01011110
          465 29 rmoveto
          -29 -2 13 -12 30 hhcurveto
          117 217 175 188 122 -98 106 -178 -265 -239 -191 -268 hvcurveto
          hintmask 10011110
          -219 197 -88 109 38 24 7 16 1 0 0 -5 5 vhcurveto
          -138 -105 110 166 307 240 106 117 109 74 -59 -131 -178 -105 -101 -44 1 1 3 4 5 1 6 1 5 hvcurveto
          62 339 rlineto
          -36 -31 -7 -9 -17 hvcurveto
          -8 -35 rlineto
          16 -7 -21 13 -26 hhcurveto
          -101 -68 -90 -70 -32 hvcurveto
          hintmask 00111110
          -78 -36 -22 -172 108 hhcurveto
          50 58 79 50 36 hvcurveto
          -8 -30 -10 -46 -1 -16 rrcurveto
          60 265 rmoveto
          -3 -38 -11 -38 -39 -57 rrcurveto
          -24 -16 -60 -70 -22 hhcurveto
          -14 -5 21 31 108 62 131 70 21 20 -21 -43 -3 hvcurveto
          endchar
        </CharString>
        <CharString name="atilde">
          -33 callsubr
          104 89 28 -20 -43 callsubr
          hintmask 11110110
          -107 callsubr
          hintmask 11111010
          -102 callsubr
          -6 574 -104 callgsubr
        </CharString>
        <CharString name="b">
          95 -12 62 325 73 318 -20 hstem
          79 118 196 131 vstem
          198 348 rmoveto
          14 19 43 13 30 hhcurveto
          74 29 -69 -105 -74 -27 -77 -70 -47 -51 24 33 hvcurveto
          -1 630 rmoveto
          -25 callgsubr
          -60 -47 callsubr
          2 -490 rlineto
          -54 -1 -49 -1 -12 vhcurveto
          -1 -13 8 -5 10 -3 12 -3 rcurveline
          13 -3 2 2 7 6 30 28 rcurveline
          -18 37 45 -17 49 hhcurveto
          141 93 -9 callgsubr
          -67 -49 -35 -22 -23 hvcurveto
          endchar
        </CharString>
        <CharString name="backslash">
          -88 52 740 rmoveto
          -8 3 -74 16 -21 -16 303 -789 rcurveline
          10 -15 66 -9 27 9 -303 801 rcurveline
          endchar
        </CharString>
        <CharString name="bar">
          -207 -246 -21 1033 -20 hstem
          84 86 vstem
          84 -267 rmoveto
          30 43 9 15 13 hvcurveto
          1009 vlineto
          -26 -43 -13 -14 -17 hvcurveto
          endchar
        </CharString>
        <CharString name="braceleft">
          -33 -207 -21 hstemhm
          139 114 -83 121 hintmask 10100000
          53 248 rmoveto
          114 -29 3 -45 -58 vvcurveto
          hintmask 11000000
          -32 -31 -81 -51 vvcurveto
          -82 82 -82 145 -16 vhcurveto
          7 3 0 12 3 8 2 13 rcurveline
          1 7 -2 3 -6 1 -100 10 -22 53 5 60 rrcurveto
          hintmask 10100000
          3 48 34 56 69 vvcurveto
          62 -42 68 -99 27 vhcurveto
          -1 1 -3 1 1 3 rrcurveto
          113 11 31 88 46 vvcurveto
          hintmask 11000000
          61 -38 73 49 vvcurveto
          81 57 22 68 11 vhcurveto
          6 1 2 3 -1 7 -2 7 rcurveline
          -3 8 0 12 -7 3 rrcurveto
          -114 3 -121 -46 -115 vvcurveto
          hintmask 10100000
          -23 32 -143 -43 vvcurveto
          -31 -6 -58 -114 -8 vhcurveto
          -3 -1 -2 -2 -2 vvcurveto
          -7 -1 -26 3 -4 vhcurveto
          1 -3 2 -2 3 -1 rrcurveto
          endchar
        </CharString>
        <CharString name="braceright">
          -33 -207 -21 hstemhm
          139 121 -83 83 -83 115 hintmask 10100000
          377 248 rmoveto
          3 1 2 2 1 3 rrcurveto
          3 4 -1 26 7 vvcurveto
          2 -2 2 -3 1 vhcurveto
          -114 8 -6 58 31 43 32 143 23 vvcurveto
          115 -121 46 -114 -3 vhcurveto
          -7 -3 0 -12 -3 -8 -2 -7 rcurveline
          -1 -7 2 -3 6 -1 rrcurveto
          68 -11 57 -22 -81 vvcurveto
          hintmask 10010000
          -49 -38 -73 -61 vvcurveto
          -46 31 -88 113 -11 vhcurveto
          1 -3 -3 -1 -1 -1 rrcurveto
          -99 -27 -42 -68 -62 vvcurveto
          -69 34 -56 3 -48 vhcurveto
          5 -60 -22 -53 -100 -10 rrcurveto
          hintmask 11000000
          -6 -1 -2 -3 1 -7 2 -13 rcurveline
          3 -8 0 -12 7 -3 rrcurveto
          145 16 82 82 82 51 -31 81 32 vvcurveto
          58 3 45 114 29 vhcurveto
          endchar
        </CharString>
        <CharString name="bracketleft">
          -5 callsubr
          96 116 hintmask 11011000
          380 -279 rmoveto
          -127 -41 3 16 hvcurveto
          1005 vlineto
          15 9 7 159 -3 vhcurveto
          -8 62 rlineto
          -4 -109 -68 -2 -74 hhcurveto
          -20 -5 -16 -10 hvcurveto
          -1104 vlineto
          -20 15 -5 11 125 44 -2 -3 49 vhcurveto
          hintmask 00111000
          5 23 -1 5 hhcurveto
          endchar
        </CharString>
        <CharString name="bracketright">
          -5 callsubr
          142 116 hintmask 00111000
          hintmask 11011000
          -19 -341 rmoveto
          5 23 1 5 hhcurveto
          3 49 44 2 125 hhcurveto
          11 15 5 20 hvcurveto
          1104 vlineto
          10 -5 16 -20 -74 -68 2 4 -109 vhcurveto
          -8 -62 rlineto
          159 3 9 -7 -15 vvcurveto
          hintmask 00111000
          -1005 vlineto
          -16 -41 -3 -127 vhcurveto
          endchar
        </CharString>
        <CharString name="brokenbar">
          -207 -223 -21 985 -20 hstem
          82 91 vstem
          82 304 rmoveto
          -11 callgsubr
          -958 vmoveto
          -11 callgsubr
          endchar
        </CharString>
        <CharString name="bullet">
          59 104 -21 294 -20 hstem
          101 228 rmoveto
          -87 58 -58 87 80 66 78 74 92 -60 50 -88 -79 -64 -71 -78 vhcurveto
          endchar
        </CharString>
        <CharString name="c">
          -2 -12 71 258 131 -61 61 10 callsubr
          hintmask 10110000
          259 387 rmoveto
          hintmask 11010000
          -45 callsubr
          -122 83 -97 139 73 70 -84 callsubr
          8 callgsubr
          -94 -38 96 85 hvcurveto
          hintmask 10110000
          87 34 60 60 vhcurveto
          endchar
        </CharString>
        <CharString name="ccedilla">
          -2 -212 167 362 131 -61 61 10 callsubr
          104 93 hintmask 10111000
          190 -63 -59 callsubr
          -3 4 57 12 53 36 36 45 rlinecurve
          -73 callsubr
          8 callgsubr
          -94 -38 96 85 87 34 60 60 hvcurveto
          hintmask 11011000
          -45 callsubr
          -112 69 -91 119 -14 hvcurveto
          -17 -19 -18 -21 -9 vvcurveto
          endchar
        </CharString>
        <CharString name="cedilla">
          372 -202 167 89 -20 hstem
          374 93 vstem
          295 -53 -59 callsubr
          -39 56 -21 -31 rlineto
          1 hlineto
          -15 -20 -39 -39 -13 vvcurveto
          endchar
        </CharString>
        <CharString name="cent">
          -19 448 -20 21 61 hstem
          38 120 vstem
          210 -70 rmoveto
          27 -6 19 4 12 15 13 107 rcurveline
          65 8 61 39 40 50 -16 22 rcurveline
          -5 6 -3 -3 -4 -4 rrcurveto
          8 callgsubr
          -11 hlineto
          37 307 rlineto
          -20 32 22 -29 13 -28 callsubr
          -16 14 -42 20 -46 11 11 89 rcurveline
          -29 13 -16 -5 -5 -3 -11 -86 rcurveline
          1 -7 -8 1 -6 -8 callsubr
          -113 69 -90 118 -15 hvcurveto
          37 398 rmoveto
          4 6 -1 5 hhcurveto
          -41 -312 rlineto
          -57 30 -21 71 65 vvcurveto
          87 34 60 70 vhcurveto
          endchar
        </CharString>
        <CharString name="circumflex">
          70 515 -21 212 -18 callgsubr
          hintmask 10100000
          302 707 rmoveto
          hintmask 11000000
          -99 callgsubr
          hintmask 10100000
          -69 callsubr
        </CharString>
        <CharString name="circumflex.cap">
          70 566 -21 162 -18 callgsubr
          hintmask 10100000
          303 708 rmoveto
          hintmask 11000000
          -99 callsubr
          hintmask 10100000
          -69 callsubr
        </CharString>
        <CharString name="colon">
          -218 -12 135 133 135 hstem
          72 133 vstem
          72 55 rmoveto
          -47 callgsubr
          268 vmoveto
          -47 callgsubr
          endchar
        </CharString>
        <CharString name="comma">
          -219 118 -20 hstem
          86 87 vstem
          18 97 20 callsubr
          -49 callgsubr
        </CharString>
        <CharString name="copyright">
          280 74 63 74 44 293 43 73 64 hstem
          45 65 63 90 368 66 vstem
          371 728 rmoveto
          -179 -147 -148 -178 -187 144 -141 182 177 149 146 182 178 -140 148 -186 hvcurveto
          -64 vmoveto
          155 105 -102 -160 -160 -92 -105 -168 -156 -105 107 158 160 105 102 156 hvcurveto
          4 -116 rmoveto
          21 24 -4 -5 16 hvcurveto
          26 -10 14 -18 5 -43 37 -3 rcurveline
          2 20 1 26 16 vvcurveto
          21 0 12 -6 11 vhcurveto
          -17 2 -13 3 -14 3 rrcurveto
          6 -23 -28 6 -37 hhcurveto
          -118 -92 -70 -127 -112 85 -71 118 56 42 14 16 29 hvcurveto
          6 -1 24 82 5 vvcurveto
          -35 8 rlineto
          -50 -20 -34 -30 -57 hhcurveto
          -80 -44 62 93 76 30 62 82 hvcurveto
          endchar
        </CharString>
        <CharString name="currency">
          55 114 87 253 85 96 -20 hstem
          56 102 203 102 vstem
          7 117 rmoveto
          13 -31 49 -23 18 5 65 73 rcurveline
          -17 30 37 -10 41 hhcurveto
          38 34 9 19 31 hvcurveto
          14 -20 13 -14 15 -19 20 -25 rcurveline
          32 11 32 41 19 vvcurveto
          -19 22 -22 28 -20 23 rrcurveto
          23 35 12 40 47 vvcurveto
          53 -18 48 -26 34 vhcurveto
          91 98 rlineto
          18 -21 -45 23 -25 hhcurveto
          -4 -4 -12 -16 -10 -11 -46 -52 rcurveline
          11 -26 -31 7 -33 hhcurveto
          -26 -25 -6 -8 -22 hvcurveto
          -12 16 -9 8 -15 19 -19 23 -18 23 -12 21 -20 -16 -33 -43 -5 -24 67 -80 rcurveline
          -31 -38 -21 -56 -57 vvcurveto
          -47 11 -38 21 -33 vhcurveto
          164 -2 rmoveto
          -56 -38 48 63 89 53 53 56 51 43 -47 -66 -76 -48 -64 -61 hvcurveto
          endchar
        </CharString>
        <CharString name="d">
          107 -12 80 -51 51 309 71 318 -20 hstemhm
          35 131 184 124 hintmask 10111100
          357 44 rmoveto
          -45 vlineto
          -7 9 -4 10 vhcurveto
          hintmask 01111100
          67 19 53 -63 callsubr
          -46 1 callgsubr
          624 vlineto
          -25 callgsubr
          -72 -19 -54 -12 13 -38 rcurveline
          60 5 15 -11 -50 vvcurveto
          -190 vlineto
          6 -16 -29 13 -56 hhcurveto
          -96 -118 -84 -166 hvcurveto
          hintmask 10111100
          -130 89 -80 109 66 32 28 28 26 vhcurveto
          -2 callgsubr
          35 18 callgsubr
          -21 -15 -34 hhcurveto
          endchar
        </CharString>
        <CharString name="degree">
          -167 449 58 127 59 hstem
          21 65 121 65 vstem
          151 507 rmoveto
          -28 -37 17 49 38 25 23 32 43 21 -26 -41 -35 -23 -25 -33 hvcurveto
          -130 64 rmoveto
          -79 59 -43 67 74 51 51 77 67 -51 49 -75 -78 -47 -54 -68 vhcurveto
          endchar
        </CharString>
        <CharString name="dieresis">
          29 538 138 hstem
          83 -26 callgsubr
          vstem
          83 606 -105 callsubr
        </CharString>
        <CharString name="divide">
          107 57 127 49 68 45 127 hstem
          216 128 vstem
          216 408 rmoveto
          -37 25 -25 38 38 27 31 33 40 -27 23 -38 -35 -28 -31 -34 vhcurveto
          -288 vmoveto
          -38 25 -25 38 38 27 31 34 40 -27 22 -38 -35 -28 -31 -33 vhcurveto
          308 109 -9 callsubr
          3 callgsubr
          -1 callsubr
          26 180 4 24 22 callsubr
        </CharString>
        <CharString name="dollar">
          88 -85 -21 915 -20 hstemhm
          35 132 81 73 76 132 -106 68 hintmask 11111000
          249 -106 rmoveto
          19 46 5 8 7 hvcurveto
          83 vlineto
          144 13 64 88 80 vvcurveto
          125 -110 52 -98 46 vhcurveto
          222 vlineto
          hintmask 11110100
          72 -20 26 -62 4 -69 63 -2 rcurveline
          -3 callsubr
          -16 7 -60 26 -84 8 rrcurveto
          120 vlineto
          -15 -48 -8 -9 -11 hvcurveto
          -101 vlineto
          -108 -7 -104 -55 -123 vvcurveto
          -115 113 -49 100 -47 vhcurveto
          -230 vlineto
          -80 7 -43 47 -26 112 -75 -14 rcurveline
          5 -59 17 -103 6 -20 50 -18 73 -22 73 -6 rrcurveto
          -81 545 rmoveto
          57 43 24 37 6 vhcurveto
          -190 vlineto
          -47 26 -33 31 46 vvcurveto
          hintmask 11111000
          230 -381 rmoveto
          -44 -24 -31 -52 -10 vhcurveto
          189 vlineto
          44 -27 32 -32 -45 vvcurveto
          endchar
        </CharString>
        <CharString name="dotlessi">
          -168 -40 callgsubr
          459 -20 -100 callsubr
          endchar
        </CharString>
        <CharString name="e">
          -34 callsubr
          -94 callsubr
          endchar
        </CharString>
        <CharString name="eacute">
          -34 callsubr
          274 -20 -94 callsubr
          -139 245 -93 callgsubr
        </CharString>
        <CharString name="ecircumflex">
          -34 callsubr
          246 -20 21 -20 10 callsubr
          166 115 hintmask 11101110
          -103 callsubr
          -40 399 rmoveto
          hintmask 11110110
          -99 callgsubr
          hintmask 11101110
          -69 callsubr
        </CharString>
        <CharString name="edieresis">
          -34 callsubr
          90 138 10 callsubr
          -67 -26 callgsubr
          -87 115 hintmask 11111001
          -103 callsubr
          hintmask 11110110
          -233 310 -105 callsubr
        </CharString>
        <CharString name="egrave">
          -34 callsubr
          255 -20 -94 callsubr
          -100 407 rmoveto
          -40 -47 -25 -61 callgsubr
          -3 -2 -2 -3 2 -3 163 -163 rcurveline
          22 5 11 12 3 26 callgsubr
        </CharString>
        <CharString name="eight">
          49 -12 68 573 64 hstemhm
          25 121 -107 121 180 121 -94 121 hintmask 11100100
          25 168 rmoveto
          -128 110 -52 121 138 94 72 109 104 -82 52 -69 38 vhcurveto
          hintmask 11011000
          59 42 65 65 75 vvcurveto
          79 -67 69 -135 -133 -87 -72 -106 -75 66 -49 57 -38 vhcurveto
          hintmask 11100100
          -59 -39 -78 -52 -94 vvcurveto
          342 -7 rmoveto
          -65 -47 -40 -53 -80 -41 53 70 54 30 61 31 32 vhcurveto
          88 -48 72 -52 -65 vvcurveto
          hintmask 11011000
          -207 376 rmoveto
          40 29 52 57 61 33 -44 -53 -47 -19 -60 -30 -38 vhcurveto
          -65 32 -66 49 69 vvcurveto
          endchar
        </CharString>
        <CharString name="ellipsis">
          209 -12 9 callsubr
          89 131 89 131 cntrmask 01110000
          49 54 rmoveto
          -75 callgsubr
          220 hmoveto
          -75 callgsubr
          220 hmoveto
          -16 callgsubr
        </CharString>
        <CharString name="endash">
          101 176 75 hstem
          17 253 rmoveto
          -8 -22 11 -50 8 -8 rrcurveto
          23 197 2 33 34 214 -2 21 hhcurveto
          16 -9 52 -11 12 vhcurveto
          -23 -186 -2 -39 -32 -205 2 -28 hhcurveto
          endchar
        </CharString>
        <CharString name="equal">
          66 135 80 -61 -21 148 80 2 10 callgsubr
          42 217 -12 callgsubr
          0 callgsubr
          -4 callsubr
          hintmask 10010000
          -25 -141 -2 -41 8 callsubr
          -5 146 -12 callgsubr
          34 173 -2 21 hhcurveto
          hintmask 10010000
          -7 callsubr
          hintmask 10100000
          -25 -141 -2 -41 hhcurveto
          hintmask 10010000
          8 callsubr
          endchar
        </CharString>
        <CharString name="eth">
          57 -27 callsubr
          286 -20 hstem
          18 -36 callgsubr
          358 593 rmoveto
          105 68 -5 16 -22 21 -14 3 rlinecurve
          -105 -65 -43 40 -45 33 -43 25 rlinecurve
          -8 -4 -24 -29 11 -9 29 -23 32 -34 30 -37 -111 -69 rcurveline
          -19 5 26 -29 10 hhcurveto
          105 68 31 -45 25 -43 7 -27 rlinecurve
          9 -28 -31 5 -34 hhcurveto
          -49 callsubr
          -71 callgsubr
          154 184 -81 88 -69 87 hvcurveto
          -86 -543 -90 callsubr
          endchar
        </CharString>
        <CharString name="exclam">
          -12 113 601 -20 hstem
          105 111 vstem
          226 687 rmoveto
          9 -4 -5 6 -18 hhcurveto
          -21 -4 -85 -30 -15 -6 55 -456 rcurveline
          -6 1 -4 3 vhcurveto
          40 2 rlineto
          4 5 6 4 hvcurveto
          41 418 rlineto
          6 2 15 15 vvcurveto
          9 1 9 -4 7 vhcurveto
          -121 -643 -19 callgsubr
        </CharString>
        <CharString name="exclamdown">
          -230 -21 599 113 hstem
          105 111 vstem
          95 -236 rmoveto
          -9 4 5 -6 18 hhcurveto
          21 4 85 30 15 6 -55 456 rcurveline
          6 -1 4 -3 vhcurveto
          -40 -2 rlineto
          -4 -5 -6 -4 hvcurveto
          -41 -418 rlineto
          -6 -2 -15 -15 vvcurveto
          -9 -1 -9 4 -7 vhcurveto
          121 641 -20 callsubr
        </CharString>
        <CharString name="f">
          -87 -40 callgsubr
          364 63 274 68 hstemhm
          95 124 hintmask 10111000
          95 76 rmoveto
          -50 callsubr
          1 285 rlineto
          105 19 callgsubr
          -116 130 hlineto
          64 15 80 68 56 42 -48 -9 22 vhcurveto
          8 0 1 3 3 hvcurveto
          24 20 20 44 -5 8 rrcurveto
          28 -21 -56 21 -50 hhcurveto
          -150 -101 -172 -160 hvcurveto
          -17 callsubr
        </CharString>
        <CharString name="five">
          -8 22 -21 583 96 70 -20 hstem
          281 126 vstem
          17 386 rmoveto
          137 127 -51 -97 -107 -104 -68 -115 -20 hvcurveto
          -7 -2 -3 -2 -6 vvcurveto
          -18 10 -14 5 152 188 95 179 99 -98 96 -200 25 vhcurveto
          10 36 7 20 9 33 rrcurveto
          141 67 -2 -10 40 hvcurveto
          24 61 11 52 37 vvcurveto
          -44 28 rlineto
          -62 -23 -17 -8 -44 hhcurveto
          -93 hlineto
          -26 -31 3 8 -32 hvcurveto
          -13 -13 -3 -14 -3 -12 rrcurveto
          endchar
        </CharString>
        <CharString name="four">
          134 9 -21 240 84 hstem
          311 122 vstem
          535 213 rmoveto
          16 24 14 26 34 vvcurveto
          7 -6 15 -10 11 vhcurveto
          -11 -18 -36 -7 -38 hhcurveto
          -24 260 hlineto
          38 6 28 8 13 vhcurveto
          1 15 -10 16 -7 10 -29 -1 -14 5 -15 -16 -363 -413 rcurveline
          -27 -20 38 -12 18 hhcurveto
          265 -217 hlineto
          33 -16 50 -6 39 -1 rrcurveto
          240 vlineto
          46 -1 17 -2 39 -12 rrcurveto
          -220 99 rmoveto
          -171 hlineto
          171 206 rlineto
          endchar
        </CharString>
        <CharString name="g">
          64 -267 64 174 217 -67 67 203 40 -40 57 hstemhm
          20 119 -78 109 162 105 -65 124 hintmask 1011001100000000
          253 188 rmoveto
          -45 -38 46 64 48 22 45 51 59 30 -49 -53 -49 -22 -52 -57 hvcurveto
          237 166 rmoveto
          14 24 1 46 -1 10 rrcurveto
          -4 -25 -34 1 -27 hhcurveto
          hintmask 1100101100000000
          -62 -61 17 -51 hhcurveto
          -112 -71 -78 -91 -65 49 -55 50 -18 hvcurveto
          -13 -9 -58 -32 -12 -12 rrcurveto
          -8 -8 -1 -6 -10 vvcurveto
          -22 30 -38 29 -14 vhcurveto
          -20 -14 -54 -34 -12 -12 rrcurveto
          hintmask 1011010010000000
          -14 -14 -7 -21 -17 vvcurveto
          -109 103 -36 105 146 122 95 100 58 -21 37 -53 20 vhcurveto
          -24 9 -50 5 -38 4 -28 2 -58 7 -17 5 rrcurveto
          -11 2 -24 3 17 vvcurveto
          13 23 9 8 2 vhcurveto
          3 16 16 -3 13 hhcurveto
          hintmask 1101010100000000
          103 86 67 106 22 -13 43 -20 11 hvcurveto
          hintmask 1101010010000000
          -32 -483 rmoveto
          -43 -37 -47 -80 -70 -46 32 53 50 34 23 14 9 vhcurveto
          4 7 16 3 7 hhcurveto
          31 50 -3 -17 36 hvcurveto
          32 -15 6 -26 -23 vvcurveto
          endchar
        </CharString>
        <CharString name="germandbls">
          140 -12 57 -45 45 664 58 hstemhm
          95 124 81 117 26 100 -46 95 hintmask 01111100
          95 76 rmoveto
          -6 callgsubr
          -30 callgsubr
          9 callgsubr
          -70 callsubr
          -78 callgsubr
          1 478 rlineto
          64 15 91 88 75 45 -61 -68 -48 -36 -36 -33 -33 vhcurveto
          -34 -34 -40 -30 -45 vvcurveto
          -57 59 -41 48 -41 vhcurveto
          hintmask 10111010
          41 -35 49 -21 -47 vvcurveto
          -39 -25 -23 -37 -38 -24 26 16 -15 vhcurveto
          -8 10 -4 6 -11 -2 -3 -2 rlinecurve
          -25 -20 -5 -52 7 -14 rrcurveto
          -16 27 55 -14 47 hhcurveto
          93 61 68 84 hvcurveto
          144 -175 40 73 vvcurveto
          hintmask 10111100
          65 126 46 101 vvcurveto
          107 -111 51 -86 -148 -103 -173 -160 vhcurveto
          -17 callsubr
        </CharString>
        <CharString name="grave">
          -195 514 -21 210 -20 hstem
          137 703 rmoveto
          -40 -47 -25 -61 callgsubr
          -3 -2 -2 -3 2 -3 163 -163 rcurveline
          22 5 11 12 3 26 callgsubr
        </CharString>
        <CharString name="grave.cap">
          372 599 -21 150 -20 hstem
          79 728 -89 callgsubr
          endchar
        </CharString>
        <CharString name="greater">
          86 21 -21 544 -20 hstem
          57 544 rmoveto
          -6 -6 1 -81 5 -15 311 -167 rcurveline
          -4 vlineto
          -311 -168 -2 -12 -4 -80 6 -11 rlinecurve
          409 213 7 7 10 94 -4 9 rlinecurve
          endchar
        </CharString>
        <CharString name="guillemotleft">
          48 44 -21 410 -20 hstem
          14 253 13 callsubr
          183 -150 13 callgsubr
          39 -75 50 -42 40 159 132 12 callsubr
          -144 -125 -100 -51 rrcurveto
          201 1 rmoveto
          -4 -10 7 -44 8 -7 44 -11 170 -145 14 -14 5 15 11 53 -3 10 -44 40 -74 48 -45 41 159 132 rcurveline
          3 14 -6 41 -7 15 -85 -77 -44 -38 -109 -63 rrcurveto
          endchar
        </CharString>
        <CharString name="guillemotright">
          48 44 -21 410 -20 hstem
          488 253 rmoveto
          -100 51 -144 125 19 callsubr
          159 -132 rcurveline
          -42 -40 -75 -50 -41 -39 21 callgsubr
          183 150 12 callgsubr
          -201 1 rmoveto
          -109 63 -44 38 -85 77 -7 -15 -6 -41 3 -14 159 -132 rcurveline
          -45 -41 -74 -48 -44 -40 -3 -10 11 -53 5 -15 14 14 170 145 44 11 8 7 7 44 -4 10 rrcurveto
          endchar
        </CharString>
        <CharString name="guilsinglleft">
          -66 55 -21 370 -20 hstem
          54 244 13 callsubr
          193 -130 13 callgsubr
          33 -85 36 -42 40 169 112 12 callsubr
          -154 -105 -100 -51 rrcurveto
          endchar
        </CharString>
        <CharString name="guilsinglright">
          -66 55 -21 370 -20 hstem
          344 244 rmoveto
          -100 51 -154 105 19 callsubr
          169 -112 rcurveline
          -42 -40 -85 -36 -41 -33 21 callgsubr
          193 130 12 callgsubr
          endchar
        </CharString>
        <CharString name="h">
          147 -25 callsubr
          318 -20 hstemhm
          101 119 177 124 hintmask 10111100
          220 5 callsubr
          -60 -21 callsubr
          hintmask 01111100
          -30 callgsubr
          hintmask 10111100
          9 callgsubr
          hintmask 01111100
          -70 callsubr
          hintmask 10111100
          -29 callgsubr
          -51 -13 12 19 hvcurveto
          259 vlineto
          14 33 39 9 21 hhcurveto
          70 14 -39 -65 hvcurveto
          -178 vlineto
          -6 callgsubr
          hintmask 01111100
          -30 callgsubr
          hintmask 10111100
          2 45 45 -21 callgsubr
          208 vlineto
          111 -57 53 -73 -53 -50 -25 -35 -68 vhcurveto
          endchar
        </CharString>
        <CharString name="hyphen">
          -86 174 89 -69 -21 91 10 callgsubr
          52 264 rmoveto
          -8 -22 11 -61 8 -8 rrcurveto
          hintmask 10000000
          23 85 1 33 0 callgsubr
          35 70 -1 22 hhcurveto
          16 -9 63 -11 12 vhcurveto
          hintmask 10000000
          -24 -42 -1 -40 0 callgsubr
          -32 -93 1 -28 hhcurveto
          endchar
        </CharString>
        <CharString name="i">
          -40 callgsubr
          554 134 -100 callsubr
          -131 541 -19 callsubr
        </CharString>
        <CharString name="iacute">
          -40 callgsubr
          725 -20 -100 callsubr
          -125 465 -93 callgsubr
        </CharString>
        <CharString name="icircumflex">
          -40 callgsubr
          697 -18 callgsubr
          110 124 hintmask 10011000
          -96 callsubr
          hintmask 01011000
          -30 callgsubr
          hintmask 10011000
          -23 callgsubr
          hintmask 01011000
          -70 callsubr
          hintmask 10011000
          -78 callgsubr
          -52 619 rmoveto
          hintmask 10101000
          -99 callgsubr
          hintmask 10011000
          -69 callsubr
        </CharString>
        <CharString name="idieresis">
          -40 callgsubr
          541 138 hstemhm
          -10 139 -19 124 -62 138 hintmask 10101000
          -96 callsubr
          hintmask 01110100
          -30 callgsubr
          hintmask 10110100
          -23 callgsubr
          hintmask 01110100
          -70 callsubr
          hintmask 10101000
          -78 callgsubr
          hintmask 10110100
          -244 530 -105 callsubr
        </CharString>
        <CharString name="igrave">
          -40 callgsubr
          706 -20 -100 callsubr
          -121 627 rmoveto
          -40 -47 -25 -61 callgsubr
          -3 -2 -2 -3 2 -3 163 -163 rcurveline
          22 5 11 12 3 26 callgsubr
        </CharString>
        <CharString name="j">
          -189 -246 -21 818 134 hstem
          95 124 vstem
          220 434 -88 callsubr
          -16 -32 hvcurveto
          -2 -254 -1 -109 -6 -109 -82 -75 rlinecurve
          -5 -5 -2 -5 6 -6 10 -12 rcurveline
          -7 5 6 -2 6 hhcurveto
          102 39 86 147 143 vvcurveto
          -134 555 -19 callsubr
        </CharString>
        <CharString name="k">
          91 -40 callgsubr
          433 -20 356 -20 hstemhm
          101 124 hintmask 10111000
          225 5 callsubr
          -65 -18 -51 -13 13 -38 rcurveline
          50 5 15 -11 -50 vvcurveto
          -543 vlineto
          -50 callsubr
          120 vlineto
          22 -8 25 -33 28 -37 rrcurveto
          hintmask 01111000
          34 -45 25 -32 29 -44 rrcurveto
          hintmask 10111000
          1 20 43 2 26 hhcurveto
          hintmask 01111000
          -2 82 -1 -2 20 hvcurveto
          hintmask 10111000
          -11 48 -34 -4 -39 26 -25 22 rlinecurve
          -41 38 -71 80 -31 44 111 114 rcurveline
          20 19 37 4 27 -3 -10 48 rcurveline
          -2 -45 -12 -11 callsubr
          -44 -41 -65 callsubr
          -29 callsubr
          19 19 -3 -16 -12 hvcurveto
          -16 -20 -49 -51 -43 -38 rrcurveto
          endchar
        </CharString>
        <CharString name="l">
          -136 -40 callgsubr
          769 -20 hstemhm
          101 124 hintmask 10110000
          225 5 callsubr
          -65 -21 callsubr
          hintmask 01110000
          -30 callgsubr
          hintmask 10110000
          2 45 45 -83 callsubr
          endchar
        </CharString>
        <CharString name="less">
          39 21 -21 544 -20 hstem
          55 323 rmoveto
          -4 -9 10 -94 7 -7 409 -213 rcurveline
          6 11 -4 80 -2 12 -311 168 rcurveline
          4 vlineto
          311 167 5 15 1 81 -6 6 rlinecurve
          endchar
        </CharString>
        <CharString name="logicalnot">
          195 290 72 hstem
          494 72 vstem
          494 10 rmoveto
          19 -7 48 9 7 8 rrcurveto
          21 -2 74 31 122 2 63 16 vvcurveto
          4 1 11 -11 vhcurveto
          -47 -111 -2 -33 -28 -242 2 -24 hhcurveto
          -7 -19 9 -48 8 -7 rrcurveto
          21 231 2 31 19 52 -2 50 hhcurveto
          5 2 -2 -5 hvcurveto
          -43 2 -66 -25 -28 -2 -85 -24 vvcurveto
          endchar
        </CharString>
        <CharString name="m">
          389 -28 callgsubr
          159 125 156 124 hintmask 10011110
          211 388 rmoveto
          37 -64 callsubr
          rrcurveto
          hintmask 10101110
          14 -41 rlineto
          -22 callgsubr
          -240 -81 callgsubr
          259 vlineto
          12 28 31 11 27 hhcurveto
          73 0 -66 -36 hvcurveto
          -180 -81 callgsubr
          2 213 rlineto
          15 -1 24 -2 12 vhcurveto
          10 22 38 8 17 hhcurveto
          57 24 -29 -73 hvcurveto
          -180 -81 callgsubr
          213 vlineto
          107 -55 52 -81 -56 -53 -33 -24 -50 vhcurveto
          22 -8 -43 35 -60 hhcurveto
          -55 -84 -48 -12 -24 hvcurveto
          endchar
        </CharString>
        <CharString name="macron">
          -45 528 85 hstem
          84 613 rmoveto
          -11 -31 15 -42 12 -12 rrcurveto
          75 97 5 -5 75 hvcurveto
          23 -13 45 -15 17 vhcurveto
          -7 -64 -103 7 -68 hhcurveto
          endchar
        </CharString>
        <CharString name="minus">
          62 216 68 -51 -21 75 10 callgsubr
          500 212 -9 callsubr
          hintmask 10000000
          -30 -146 -3 -31 0 callgsubr
          -29 -175 3 -28 hhcurveto
          -1 callsubr
          hintmask 10000000
          26 170 4 24 0 callgsubr
          31 197 -4 2 hhcurveto
          endchar
        </CharString>
        <CharString name="mu">
          40 -246 -21 255 90 362 -20 hstemhm
          5 76 -76 121 159 126 hintmask 11101100
          339 -12 rmoveto
          32 83 23 27 34 hvcurveto
          2 12 0 27 -7 3 -40 -8 rcurveline
          -20 -4 -12 10 19 vvcurveto
          331 vlineto
          6 -2 1 6 -23 hhcurveto
          -35 -64 -26 -4 -4 hvcurveto
          -105 1 -94 -106 vvcurveto
          -10 -12 -32 -17 -27 hhcurveto
          -53 -35 21 74 hvcurveto
          255 vlineto
          6 -2 -7 6 -15 hhcurveto
          -35 -58 -26 -4 -4 hvcurveto
          -271 vlineto
          -151 13 -255 29 53 34 18 11 8 -4 10 -6 16 vhcurveto
          hintmask 11110100
          -13 35 -24 86 -6 83 rrcurveto
          -6 20 41 -6 24 hhcurveto
          68 50 35 22 28 hvcurveto
          -39 7 4 -18 16 hhcurveto
          endchar
        </CharString>
        <CharString name="multiply">
          87 56 -21 447 -20 hstem
          52 98 rmoveto
          -33 16 49 -6 15 hhcurveto
          47 48 99 101 51 -53 101 -104 22 -16 rlinecurve
          14 20 13 49 19 vvcurveto
          -45 43 -30 29 -44 42 -28 28 rlinecurve
          28 28 44 43 40 38 57 54 rcurveline
          -23 18 -48 10 -19 1 -133 -134 rcurveline
          -157 159 rlineto
          -34 -17 -6 -47 -15 vvcurveto
          46 -44 52 -48 46 -45 rrcurveto
          endchar
        </CharString>
        <CharString name="n">
          121 -28 callgsubr
          172 124 hintmask 10101100
          29 358 rmoveto
          -22 callgsubr
          -240 -54 callgsubr
          259 vlineto
          14 33 34 9 21 hhcurveto
          70 14 -39 -65 hvcurveto
          -178 -54 callgsubr
          208 vlineto
          111 -57 53 -73 -53 -50 -25 -35 -68 vhcurveto
          hintmask 10011100
          37 -64 callsubr
          rrcurveto
          endchar
        </CharString>
        <CharString name="nine">
          64 9 -21 268 86 287 62 hstem
          22 131 217 131 vstem
          156 20 rmoveto
          4 -16 28 -12 14 -4 rrcurveto
          179 123 120 183 162 vvcurveto
          154 -85 81 -160 -152 -82 -106 -108 -142 114 -79 97 38 54 7 11 26 vhcurveto
          -20 -77 -89 -115 -86 -62 rrcurveto
          196 356 rmoveto
          -22 -16 -38 -12 -34 hhcurveto
          -69 -42 63 92 58 26 74 75 67 49 -62 -93 -49 -3 -28 -15 -21 hvcurveto
          endchar
        </CharString>
        <CharString name="notequal">
          66 135 80 66 81 104 -20 hstem
          71 -9 rmoveto
          32 -3 44 7 18 7 75 133 rcurveline
          26 hlineto
          -4 callsubr
          -23 -113 -2 -53 hhcurveto
          37 66 rlineto
          -1 64 88 -1 15 hhcurveto
          -7 callsubr
          -13 -43 -1 -45 hhcurveto
          62 109 rlineto
          7 -30 -51 -12 -6 hhcurveto
          -60 -105 rlineto
          -21 hlineto
          8 callsubr
          -13 callsubr
          19 115 1 1 55 hvcurveto
          -38 -66 rlineto
          1 -60 -79 1 -18 hhcurveto
          -13 callsubr
          11 43 0 1 46 hvcurveto
          endchar
        </CharString>
        <CharString name="ntilde">
          121 -25 callsubr
          104 89 28 24 callsubr
          172 124 hintmask 10111110
          29 358 rmoveto
          -22 callgsubr
          -240 -55 callsubr
          259 vlineto
          14 33 34 9 21 hhcurveto
          70 14 -39 -65 hvcurveto
          -178 -55 callsubr
          208 vlineto
          111 -57 53 -73 -53 -50 -25 -35 -68 vhcurveto
          37 -64 callsubr
          rrcurveto
          479 243 -104 callgsubr
        </CharString>
        <CharString name="numbersign">
          -8 228 63 118 63 -2 -18 callgsubr
          hintmask 10010000
          364 628 rmoveto
          -19 13 -40 -12 -6 -4 -32 -154 rcurveline
          -80 hlineto
          33 157 -19 13 -40 -12 -6 -4 rlinecurve
          hintmask 11000000
          -32 -153 rlineto
          -72 -4 17 callgsubr
          88 -3 rcurveline
          -25 -117 rlineto
          -81 -3 17 callgsubr
          96 -3 rcurveline
          -30 -148 14 -13 38 -11 6 11 rlinecurve
          34 159 82 -2 -30 -144 14 -13 38 -11 6 11 rlinecurve
          33 155 59 -1 rlineto
          3 7 2 1 3 hvcurveto
          26 10 44 28 -20 28 rrcurveto
          -108 hlineto
          25 114 66 -2 rlineto
          4 6 2 1 3 hvcurveto
          hintmask 10100000
          26 10 44 28 -20 28 rrcurveto
          -115 hlineto
          -182 -180 rmoveto
          25 117 80 -3 -23 -114 rlineto
          endchar
        </CharString>
        <CharString name="o">
          99 -27 callsubr
          -97 callsubr
          endchar
        </CharString>
        <CharString name="oacute">
          99 -27 callsubr
          274 -20 -97 callsubr
          185 332 -93 callgsubr
        </CharString>
        <CharString name="ocircumflex">
          99 -27 callsubr
          246 -20 21 -20 hstemhm
          35 -22 callsubr
          hintmask 11011100
          -102 callgsubr
          277 486 rmoveto
          hintmask 11101100
          -99 callgsubr
          hintmask 11011100
          -69 callsubr
        </CharString>
        <CharString name="odieresis">
          99 -27 callsubr
          90 138 10 callsubr
          -45 -26 callgsubr
          -45 130 hintmask 11110010
          -102 callgsubr
          hintmask 11101100
          85 397 -105 callsubr
        </CharString>
        <CharString name="oe">
          360 -12 71 177 60 92 60 hstem
          35 1 callsubr
          132 166 115 vstem
          799 -68 callsubr
          -55 -57 -22 -44 -42 hvcurveto
          42 -44 -64 24 -75 hhcurveto
          -49 callsubr
          -142 102 -79 145 67 61 23 40 44 hvcurveto
          -39 37 57 -24 75 hhcurveto
          -92 callgsubr
          -238 -186 -90 callsubr
          242 246 -68 callgsubr
          endchar
        </CharString>
        <CharString name="ograve">
          99 -27 callsubr
          255 -20 -97 callsubr
          218 494 rmoveto
          -40 -47 -25 -61 callgsubr
          -3 -2 -2 -3 2 -3 163 -163 rcurveline
          22 5 11 12 3 26 callgsubr
        </CharString>
        <CharString name="one">
          -121 -46 callsubr
          23 -21 712 -20 hstemhm
          105 135 hintmask 10011000
          105 85 rmoveto
          -14 1 -17 -79 -3 vhcurveto
          hintmask 00111000
          11 -52 rlineto
          hintmask 10011000
          49 49 1 47 hhcurveto
          hintmask 01011000
          54 33 -3 54 hhcurveto
          hintmask 10011000
          -13 54 rlineto
          -63 -2 -7 23 13 vvcurveto
          -1 592 rlineto
          32 -3 2 -23 vhcurveto
          -95 -28 -44 -13 -40 -7 -35 -6 rlinecurve
          20 -49 rlineto
          3 21 7 0 6 hhcurveto
          41 10 -21 -22 hvcurveto
          endchar
        </CharString>
        <CharString name="onehalf">
          335 4 59 244 52 hstem
          164 70 371 79 vstem
          570 693 -61 callsubr
          -19 -386 rmoveto
          34 20 -13 -36 -75 -92 -95 -51 -36 hvcurveto
          -24 -20 rlineto
          -6 2 -17 3 -9 vhcurveto
          3 33 31 1 44 hhcurveto
          38 hlineto
          32 33 0 -9 24 hvcurveto
          7 22 4 13 -3 callgsubr
          -40 -11 -7 -3 -29 hhcurveto
          -85 hlineto
          61 54 88 65 86 vvcurveto
          59 -50 32 -62 -53 -39 -36 -42 -23 vhcurveto
          -10 2 11 -9 6 hhcurveto
          32 22 24 13 29 hhcurveto
          -387 49 -73 callgsubr
          endchar
        </CharString>
        <CharString name="onequarter">
          337 107 53 hstem
          164 70 321 74 vstem
          570 693 -61 callsubr
          112 -594 -79 callgsubr
          -518 257 -73 callgsubr
          394 -422 23 callgsubr
        </CharString>
        <CharString name="onesuperior">
          -228 431 -20 39 -21 337 -20 hstemhm
          80 70 hintmask 10110000
          80 485 -26 callsubr
          hintmask 01110000
          -35 callgsubr
          263 -35 callsubr
          -20 -8 callgsubr
          10 0 6 hhcurveto
          11 5 -11 -12 hvcurveto
          endchar
        </CharString>
        <CharString name="ordfeminine">
          -114 431 45 201 45 hstem
          50 70 67 77 vstem
          189 490 rmoveto
          -7 -8 -15 -7 -12 hhcurveto
          -16 -18 11 23 15 11 17 58 12 hvcurveto
          86 -73 rmoveto
          -4 -7 1 12 hvcurveto
          128 vlineto
          67 -35 33 -52 -26 -65 -23 -18 -16 vhcurveto
          -6 -6 -5 -18 -16 vvcurveto
          -16 2 -6 7 20 29 9 3 vhcurveto
          40 vlineto
          3 6 16 3 10 hhcurveto
          30 8 -27 -45 hvcurveto
          -23 vlineto
          -102 -22 -35 -17 -49 vvcurveto
          -36 30 -27 37 37 27 23 14 14 vhcurveto
          -15 6 3 -22 19 hhcurveto
          17 62 22 3 10 hvcurveto
          -4 13 0 4 -1 9 rrcurveto
          -16 hlineto
          -3 -7 -1 -6 hhcurveto
          endchar
        </CharString>
        <CharString name="ordmasculine">
          -107 428 40 216 -20 58 -20 hstem
          5 83 147 83 vstem
          167 468 rmoveto
          -56 -23 60 57 43 14 56 54 58 21 -62 -57 -44 -17 -53 -51 hvcurveto
          -162 102 rmoveto
          -92 66 -50 92 86 69 58 90 91 -65 55 -93 -87 -68 -66 -86 vhcurveto
          endchar
        </CharString>
        <CharString name="oslash">
          68 -27 callsubr
          31 -20 hstem
          15 -36 callgsubr
          15 209 rmoveto
          -80 32 -60 54 -37 vhcurveto
          -47 -66 21 -18 19 -5 18 6 rlinecurve
          39 57 rlineto
          -12 33 37 -6 41 hhcurveto
          134 109 92 139 78 -31 61 -51 40 hvcurveto
          36 52 rlineto
          26 -19 -16 3 -6 hhcurveto
          -39 -55 rlineto
          15 -35 -41 9 -45 hhcurveto
          -49 callsubr
          hvcurveto
          130 24 rmoveto
          68 23 87 83 33 26 -13 -21 19 vhcurveto
          -163 -230 rlineto
          -15 32 -6 39 38 vvcurveto
          124 -183 rmoveto
          -28 -23 10 16 -18 hvcurveto
          158 228 rlineto
          12 -31 5 -35 -35 vvcurveto
          -70 -26 -83 -80 vhcurveto
          endchar
        </CharString>
        <CharString name="otilde">
          99 -27 callsubr
          104 89 28 -20 -97 callsubr
          418 433 -104 callgsubr
        </CharString>
        <CharString name="p">
          95 24 callgsubr
          246 62 325 73 8 -20 hstemhm
          77 124 189 131 hintmask 10110110
          201 348 -20 callgsubr
          -5 281 rmoveto
          4 vlineto
          hintmask 10101110
          33 -64 callsubr
          14 -41 rcurveline
          -22 callgsubr
          -495 -58 callgsubr
          hintmask 01110110
          -30 callgsubr
          hintmask 10110110
          -23 callgsubr
          hintmask 01110110
          44 68 -66 callsubr
          hintmask 10110110
          -38 callgsubr
          -67 -48 -35 -25 -23 hvcurveto
          endchar
        </CharString>
        <CharString name="paragraph">
          85 -82 -21 22 -21 560 -18 callgsubr
          219 90 55 88 hintmask 01011100
          364 -102 rmoveto
          88 467 hlineto
          12 21 2 76 8 vhcurveto
          -12 72 rlineto
          hintmask 10101100
          -18 -31 0 -1 -15 hvcurveto
          -14 -12 -1 -182 hhcurveto
          -127 -130 -38 -164 -138 100 -58 109 hvcurveto
          2 -162 88 hlineto
          5 446 rlineto
          30 44 -5 9 2 vhcurveto
          endchar
        </CharString>
        <CharString name="parenleft">
          -100 39 121 vstem
          39 281 rmoveto
          -167 87 -198 159 -133 vhcurveto
          17 -12 49 34 8 vvcurveto
          -105 118 -86 186 174 vvcurveto
          176 74 152 114 127 vhcurveto
          8 -48 29 -17 -12 vhcurveto
          -133 -118 -111 -193 -179 vvcurveto
          endchar
        </CharString>
        <CharString name="parenright">
          -100 200 121 vstem
          321 281 rmoveto
          179 -111 193 -133 118 vhcurveto
          -17 12 -48 -29 -8 vvcurveto
          114 -127 74 -152 -176 vvcurveto
          -174 -86 -186 -105 -118 vhcurveto
          -8 49 -34 17 12 vhcurveto
          159 133 87 198 167 vvcurveto
          endchar
        </CharString>
        <CharString name="percent">
          237 -2 61 -50 -21 310 58 20 61 239 58 hstemhm
          20 102 133 102 0 102 133 102 hintmask 1011111010000000
          357 162 -17 callgsubr
          -337 378 -17 callgsubr
          175 -103 rmoveto
          -14 callgsubr
          337 -378 rmoveto
          hintmask 1011110110000000
          -14 callgsubr
          -14 655 rmoveto
          -453 -714 rlineto
          hintmask 0111111010000000
          -3 -2 4 -9 6 hhcurveto
          25 -2 52 8 7 5 455 717 rcurveline
          -21 16 -65 -15 -8 -3 rrcurveto
          endchar
        </CharString>
        <CharString name="period">
          -231 -12 9 callsubr
          vstem
          49 54 rmoveto
          -16 callgsubr
        </CharString>
        <CharString name="periodcentered">
          -231 151 9 callsubr
          vstem
          49 217 rmoveto
          -16 callgsubr
        </CharString>
        <CharString name="plus">
          107 195 82 195 -20 hstem
          239 83 vstem
          237 -11 -82 callsubr
          endchar
        </CharString>
        <CharString name="plusminus">
          115 -2 68 -51 -21 326 82 195 -20 hstemhm
          239 83 hintmask 01111000
          237 114 -82 callsubr
          287 -120 -9 callsubr
          hintmask 10111000
          3 callgsubr
          hintmask 01111000
          -1 callsubr
          hintmask 10111000
          26 180 4 24 hhcurveto
          hintmask 01111000
          22 callsubr
        </CharString>
        <CharString name="q">
          81 24 callgsubr
          246 78 311 71 hstemhm
          36 131 191 124 hintmask 10111100
          358 44 rmoveto
          -223 vlineto
          -17 -20 -13 -70 -1 vhcurveto
          hintmask 01111100
          -30 callgsubr
          hintmask 10111100
          2 45 65 -21 callgsubr
          499 vlineto
          63 12 46 3 13 vhcurveto
          2 8 -1 3 -5 1 -28 5 rcurveline
          -13 2 -2 -1 -7 -6 -45 -39 rcurveline
          19 -49 -43 14 -56 hhcurveto
          -96 -117 -84 -166 -1 hvcurveto
          -130 -1 90 -80 109 hhcurveto
          66 39 31 25 19 hvcurveto
          -2 callgsubr
          34 18 callgsubr
          -20 -15 -34 hhcurveto
          endchar
        </CharString>
        <CharString name="question">
          -81 -12 113 484 107 hstemhm
          83 92 -64 111 65 73 hintmask 11101000
          159 413 rmoveto
          -55 -35 -21 -50 -33 vvcurveto
          -67 84 -40 10 1 vhcurveto
          8 1 6 7 3 13 rrcurveto
          -13 15 -6 10 19 vvcurveto
          32 40 20 55 36 vhcurveto
          67 44 23 42 76 vvcurveto
          62 -46 69 -101 43 vhcurveto
          10 -23 -28 4 -21 hhcurveto
          -49 -7 -13 -13 -32 10 -59 13 1 hvcurveto
          6 28 27 3 24 hhcurveto
          60 40 -31 -34 -34 -41 -20 -64 -39 hvcurveto
          1 vlineto
          hintmask 11011000
          -71 -384 -19 callgsubr
        </CharString>
        <CharString name="questiondown">
          -107 -250 107 484 113 hstemhm
          -6 73 65 111 -64 92 hintmask 11101000
          195 29 rmoveto
          55 35 21 50 33 vvcurveto
          67 -84 40 -10 -1 vhcurveto
          -8 -1 -6 -7 -3 -13 rrcurveto
          13 -15 6 -10 -19 vvcurveto
          -32 -40 -20 -55 -36 vhcurveto
          -67 -44 -23 -42 -76 vvcurveto
          -62 46 -69 101 -43 vhcurveto
          -10 23 28 -4 21 hhcurveto
          49 7 13 13 32 -10 59 -13 -1 hvcurveto
          -6 -28 -27 -3 -24 hhcurveto
          -60 -40 31 34 34 41 20 64 39 hvcurveto
          -1 vlineto
          hintmask 11110000
          71 384 -20 callsubr
        </CharString>
        <CharString name="quotedbl">
          -166 722 -20 25 -20 hstemhm
          hintmask 10000000
          46 666 -57 callgsubr
          4 -1 6 -5 vhcurveto
          -1 callgsubr
          129 5 -57 callgsubr
          hintmask 01000000
          4 1 -2 6 -5 hhcurveto
          -1 callgsubr
          endchar
        </CharString>
        <CharString name="quotesingle">
          -269 775 -20 hstem
          45 719 -57 callgsubr
          4 1 -2 6 -5 hhcurveto
          -1 callgsubr
          endchar
        </CharString>
        <CharString name="r">
          -56 -28 callgsubr
          hintmask 10011000
          206 378 rmoveto
          -2 24 -1 23 -2 17 rrcurveto
          12 -2 -6 2 -10 -62 callsubr
          rrcurveto
          hintmask 10101000
          14 -41 rlineto
          -22 callgsubr
          -60 callgsubr
          hintmask 01101000
          -30 callgsubr
          hintmask 10101000
          -23 callgsubr
          hintmask 01101000
          44 68 -66 callsubr
          hintmask 10101000
          -29 callgsubr
          -71 -41 callsubr
          202 vlineto
          46 20 29 24 3 vhcurveto
          4 hlineto
          84 -31 rlineto
          5 49 65 28 hvcurveto
          25 -18 -39 5 -26 hhcurveto
          -47 -52 -48 -22 -14 hvcurveto
          endchar
        </CharString>
        <CharString name="registered">
          -158 419 40 50 142 -14 93 -41 41 hstemhm
          -2 141 -46 123 -41 133 hintmask 11011010
          153 730 rmoveto
          -84 -71 -71 -84 -88 69 -68 86 83 72 70 86 84 -67 71 -88 hvcurveto
          -41 vmoveto
          61 51 -41 -73 -74 -45 -42 -67 -61 -52 44 72 73 52 41 61 hvcurveto
          -4 -38 rmoveto
          -74 hlineto
          2 -12 rlineto
          hintmask 11010100
          12 4 -4 -8 hvcurveto
          -100 vlineto
          -4 -4 -3 -14 vhcurveto
          2 -11 rlineto
          80 hlineto
          -2 11 rlineto
          hintmask 11011010
          -11 -5 2 5 hvcurveto
          41 9 vlineto
          23 -34 17 -25 rlineto
          54 hlineto
          -4 10 -8 1 -4 1 -4 6 rlinecurve
          -36 47 rlineto
          hintmask 11010100
          16 6 14 12 19 vvcurveto
          28 -25 12 -42 vhcurveto
          hintmask 10101010
          -10 -16 rmoveto
          1 -2 1 10 14 14 -8 -18 -19 -6 -13 -22 vhcurveto
          -8 hlineto
          endchar
        </CharString>
        <CharString name="ring">
          -61 501 63 77 59 hstem
          100 61 82 58 vstem
          100 598 -54 callsubr
          endchar
        </CharString>
        <CharString name="s">
          -52 -11 61 338 60 hstem
          37 103 128 106 vstem
          35 158 rmoveto
          -15 vlineto
          -29 9 -95 9 -7 vhcurveto
          -15 47 46 -8 44 hhcurveto
          115 69 53 85 hvcurveto
          151 -234 -7 68 vvcurveto
          27 26 22 35 61 31 -39 -48 7 vhcurveto
          44 -4 rlineto
          4 18 4 30 25 vvcurveto
          25 -3 16 -10 9 vhcurveto
          13 -35 -46 15 -58 hhcurveto
          -79 -84 -45 -85 hvcurveto
          -153 231 12 -75 vvcurveto
          -37 -32 -15 -48 -43 -42 27 78 -10 vhcurveto
          endchar
        </CharString>
        <CharString name="section">
          39 -217 95 -95 180 616 160 -95 95 hstemhm
          21 95 3 102 98 111 2 97 hintmask 10101111
          21 345 rmoveto
          -96 93 -84 83 -72 vhcurveto
          62 -54 60 -53 -37 vvcurveto
          -46 -34 -25 -54 vhcurveto
          hintmask 01101111
          -77 -30 85 -24 hhcurveto
          -33 -15 -67 -26 -37 90 -50 66 143 79 104 105 hvcurveto
          1 vlineto
          54 35 45 56 93 vvcurveto
          94 -97 86 -82 67 vhcurveto
          -62 51 -67 59 45 vvcurveto
          hintmask 10011111
          44 31 21 38 vhcurveto
          hintmask 10101111
          66 24 -65 20 hhcurveto
          31 16 72 11 58 -73 19 -51 -113 -91 -108 -100 hvcurveto
          -12 vlineto
          -53 -34 -45 -46 -94 vvcurveto
          95 58 rmoveto
          19 12 28 16 4 vhcurveto
          31 -48 59 -51 52 -44 rrcurveto
          69 -57 77 -77 -56 vvcurveto
          -19 -8 -31 -17 -14 vhcurveto
          -29 48 -64 57 -54 47 rrcurveto
          -70 61 -74 76 57 vvcurveto
          endchar
        </CharString>
        <CharString name="semicolon">
          -163 118 138 0 135 hstemhm
          75 133 -45 87 hintmask 01100000
          75 323 rmoveto
          -47 callgsubr
          20 -226 20 callsubr
          hintmask 10010000
          -49 callgsubr
        </CharString>
        <CharString name="seven">
          53 8 -21 596 97 13 -20 hstemhm
          hintmask 11000000
          398 680 rmoveto
          -214 hlineto
          hintmask 10100000
          -57 1 -38 0 -40 12 rrcurveto
          -39 -108 4 -19 -33 vvcurveto
          53 -34 -6 callsubr
          64 23 22 20 47 hhcurveto
          218 hlineto
          -221 -567 -4 -23 39 0 26 -6 rlinecurve
          299 662 rlineto
          6 4 20 -9 15 vhcurveto
          -11 -45 -34 1 -34 hhcurveto
          endchar
        </CharString>
        <CharString name="six">
          64 -12 68 288 63 285 -20 hstem
          24 131 217 131 vstem
          399 659 rmoveto
          -1 18 -29 9 -15 6 rrcurveto
          -181 -114 -149 -190 -164 vvcurveto
          -154 85 -82 160 152 82 107 108 142 -114 62 -97 -34 -59 -15 -10 -26 vhcurveto
          46 117 110 93 70 67 rrcurveto
          -226 -355 rmoveto
          22 16 38 18 34 hhcurveto
          69 42 -69 -92 -58 -26 -69 -75 -68 -48 57 93 49 2 28 16 21 hvcurveto
          endchar
        </CharString>
        <CharString name="slash">
          -9 329 740 rmoveto
          -303 -801 27 -9 66 9 10 15 rlinecurve
          303 789 -21 16 -74 -16 -8 -3 rlinecurve
          endchar
        </CharString>
        <CharString name="space">
          -263 endchar
        </CharString>
        <CharString name="sterling">
          102 -29 91 252 63 237 79 hstemhm
          108 131 -113 113 hintmask 11110000
          402 377 rmoveto
          -52 -56 -1 -52 hhcurveto
          -3 40 rlineto
          -4 50 -7 39 30 vvcurveto
          59 16 20 37 31 32 -20 -14 22 vhcurveto
          25 -14 16 -9 5 12 5 5 rlinecurve
          20 24 15 24 5 19 rrcurveto
          22 -60 30 -50 -160 -90 -109 -144 11 vhcurveto
          1 -18 4 -28 2 -18 rrcurveto
          -100 hlineto
          -29 6 -31 20 -2 vhcurveto
          81 hlineto
          hintmask 11101000
          3 -30 1 -31 -19 vvcurveto
          -61 -16 -35 -64 -64 vhcurveto
          -21 -21 9 -64 12 -3 14 1 22 1 18 8 10 1 4 8 5 10 rrcurveto
          17 vlineto
          -1 8 0 7 3 6 rrcurveto
          2 3 5 2 5 hhcurveto
          18 31 -18 -17 31 hvcurveto
          -24 42 49 -27 46 hhcurveto
          93 69 52 129 17 hvcurveto
          -25 7 -6 2 -6 2 -3 -1 rlinecurve
          -3 -1 -1 -4 -1 -4 -15 -60 -41 -30 -33 -1 -28 -1 -30 14 -29 18 -29 17 -23 7 -26 2 -17 1 -31 -6 -13 -7 37 29 45 87 -3 67 -1 24 rcurveline
          175 hlineto
          7 31 -9 26 -6 6 rrcurveto
          endchar
        </CharString>
        <CharString name="t">
          -101 -11 70 308 63 103 -20 hstem
          72 126 vstem
          199 367 rmoveto
          115 19 callgsubr
          -127 hlineto
          -4 85 rlineto
          13 -2 5 -14 vhcurveto
          -24 hlineto
          -28 -56 -29 -46 -80 -27 5 -37 rcurveline
          50 -250 hlineto
          -61 47 -67 82 69 34 31 39 41 vhcurveto
          -20 27 -2 3 -6 -1 -4 -3 rlinecurve
          -20 -26 -12 -6 -20 hhcurveto
          -35 -22 32 54 hvcurveto
          endchar
        </CharString>
        <CharString name="thorn">
          82 24 callgsubr
          48 198 0 62 325 73 275 -20 hstemhm
          77 109 -109 124 189 131 hintmask 1001111010000000
          186 388 rmoveto
          327 vlineto
          5 -4 -5 3 -9 -62 callsubr
          14 -41 rcurveline
          -22 callgsubr
          -762 -58 callgsubr
          hintmask 0101111010000000
          -30 callgsubr
          hintmask 1001111010000000
          -23 callgsubr
          hintmask 0101111010000000
          44 68 -66 callsubr
          hintmask 0110110110000000
          -38 callgsubr
          hvcurveto
          hintmask 1001111010000000
          -67 -48 -35 -25 -33 hvcurveto
          hintmask 1001110110000000
          15 -40 -20 callgsubr
          endchar
        </CharString>
        <CharString name="three">
          -9 -12 50 568 86 hstemhm
          285 112 -112 137 hintmask 11010000
          67 349 rmoveto
          -5 6 -33 9 -15 vhcurveto
          5 20 34 3 20 hhcurveto
          61 68 -38 -66 -87 -85 -75 -118 -16 -16 1 1 -29 hvcurveto
          -9 -8 -29 -8 9 hvcurveto
          -8 14 42 -7 50 hhcurveto
          158 145 72 140 103 -108 52 -76 26 hvcurveto
          hintmask 11100000
          86 35 73 56 87 vvcurveto
          84 -79 49 -97 -118 -69 -68 -50 -30 vhcurveto
          -18 7 12 -17 15 hhcurveto
          37 29 65 30 54 hhcurveto
          52 38 -28 -50 -89 -172 -71 -37 -19 hvcurveto
          endchar
        </CharString>
        <CharString name="threequarters">
          373 107 53 294 204 -54 54 hstemhm
          241 65 -65 82 268 74 hintmask 11001100
          132 481 rmoveto
          -2 4 -20 3 callsubr
          -16 -34 -45 -40 -30 14 callgsubr
          -23 -4 5 hvcurveto
          -4 7 22 -4 25 hhcurveto
          82 82 37 72 60 -48 26 -46 7 hvcurveto
          hintmask 10110100
          50 22 27 32 38 -10 callsubr
          -19 6 callsubr
          -5 -26 -45 -82 -37 -20 -10 hvcurveto
          456 189 -61 callsubr
          130 -571 -79 callgsubr
          -124 61 23 callgsubr
        </CharString>
        <CharString name="threesuperior">
          -181 415 186 -37 197 -50 50 hstemhm
          179 76 hintmask 01010000
          70 584 rmoveto
          -2 4 -13 3 callsubr
          -12 -34 -45 -40 -21 14 callgsubr
          -26 -4 5 hvcurveto
          hintmask 10110000
          -4 7 22 -4 29 hhcurveto
          78 76 33 72 60 -50 21 -46 hvcurveto
          50 22 35 25 44 -10 callsubr
          -15 6 callsubr
          -9 -26 -45 -82 -37 -20 -10 hvcurveto
          endchar
        </CharString>
        <CharString name="tilde">
          -40 557 89 28 -20 hstem
          397 647 -104 callgsubr
        </CharString>
        <CharString name="two">
          82 0 99 -94 -21 622 85 hstemhm
          332 145 hintmask 10110000
          218 606 rmoveto
          66 48 -42 -70 -100 -59 -92 -65 -80 hvcurveto
          -68 -83 -44 -37 -39 -32 -14 -11 -19 -13 -14 -13 rrcurveto
          -10 4 -14 6 -15 vhcurveto
          5 64 49 1 85 hhcurveto
          73 hlineto
          hintmask 01110000
          62 58 0 -16 45 hvcurveto
          13 44 10 24 5 30 rrcurveto
          5 31 4 27 35 vvcurveto
          -49 24 rlineto
          hintmask 10110000
          -78 -23 -13 -22 -57 hhcurveto
          -163 hlineto
          33 33 47 42 56 66 rrcurveto
          73 86 80 82 104 vvcurveto
          116 -98 63 -119 -105 -75 -63 -80 -46 vhcurveto
          -20 3 25 -10 11 hhcurveto
          61 43 45 27 57 hhcurveto
          endchar
        </CharString>
        <CharString name="twosuperior">
          -171 429 63 -49 -21 290 49 hstemhm
          177 75 hintmask 10110000
          124 712 rmoveto
          34 19 -16 -36 -68 -86 -86 -50 -35 hvcurveto
          -24 -20 rlineto
          -6 2 -11 3 -9 vhcurveto
          3 33 25 1 44 hhcurveto
          38 hlineto
          hintmask 01110000
          32 27 -1 -6 30 hvcurveto
          7 22 4 11 -3 callgsubr
          hintmask 10110000
          -40 -11 -7 1 -29 hhcurveto
          -60 hlineto
          62 69 57 47 72 vvcurveto
          54 -45 27 -62 -53 -36 -36 -38 -16 vhcurveto
          -10 2 15 -6 6 hhcurveto
          26 18 20 15 23 hhcurveto
          endchar
        </CharString>
        <CharString name="u">
          -34 callgsubr
          6 -27 callgsubr
          hintmask 10101100
          -43 callgsubr
          hintmask 01011100
          67 19 24 -63 callsubr
          -26 1 callgsubr
          323 vlineto
          hintmask 10101100
          -95 callgsubr
          -248 vlineto
          -17 -20 -37 -11 -24 hhcurveto
          -47 -31 25 72 hvcurveto
          hintmask 10011100
          261 vlineto
          hintmask 10101100
          -95 callgsubr
          -1 -211 rlineto
          -53 callgsubr
          endchar
        </CharString>
        <CharString name="uacute">
          -34 callgsubr
          292 -91 callsubr
          -166 497 -93 callgsubr
        </CharString>
        <CharString name="ucircumflex">
          -34 callgsubr
          264 -20 21 -27 callgsubr
          hintmask 10101110
          -43 callgsubr
          hintmask 01101110
          -101 callgsubr
          hintmask 10101110
          -53 callgsubr
          -78 651 rmoveto
          hintmask 10110110
          -99 callgsubr
          hintmask 10101110
          -69 callsubr
        </CharString>
        <CharString name="udieresis">
          -34 callgsubr
          108 138 hstemhm
          74 125 -96 -26 callgsubr
          -65 124 hintmask 10111010
          -43 callgsubr
          hintmask 01111001
          -101 callgsubr
          hintmask 10110110
          -53 callgsubr
          -265 562 -105 callsubr
        </CharString>
        <CharString name="ugrave">
          -34 callgsubr
          273 -91 callsubr
          -149 659 rmoveto
          -40 -47 -25 -61 callgsubr
          -3 -2 -2 -3 2 -3 163 -163 rcurveline
          22 5 11 12 3 26 callgsubr
        </CharString>
        <CharString name="underscore">
          139 -74 70 -52 -21 75 10 callgsubr
          4 -2 rmoveto
          -9 -24 12 -42 10 -9 rrcurveto
          hintmask 10000000
          27 212 3 50 0 callgsubr
          68 202 -3 24 hhcurveto
          20 -9 41 -14 14 vhcurveto
          hintmask 10000000
          -28 -166 -2 -76 0 callgsubr
          -66 -206 2 -31 hhcurveto
          endchar
        </CharString>
        <CharString name="uni00AD">
          -182 164 70 -51 -21 74 10 callgsubr
          13 236 rmoveto
          -7 -19 9 -48 8 -7 rrcurveto
          hintmask 10000000
          21 52 2 31 0 callgsubr
          30 85 -2 19 hhcurveto
          15 -7 48 -11 11 vhcurveto
          hintmask 10000000
          -22 -57 -2 -36 0 callgsubr
          -28 -63 2 -24 hhcurveto
          endchar
        </CharString>
        <CharString name="v">
          50 4 callsubr
          301 hmoveto
          -80 callsubr
          -50 -65 callsubr
          hintmask 11000000
          -42 callgsubr
          157 -341 rlineto
          endchar
        </CharString>
        <CharString name="w">
          351 4 callsubr
          311 hmoveto
          103 225 104 -225 rlineto
          74 hlineto
          -80 callsubr
          -33 -65 callsubr
          hintmask 11000000
          0 callsubr
          17 -7 -20 10 hvcurveto
          12 -23 -90 -200 -90 218 -77 callsubr
          -50 -65 callsubr
          hintmask 11000000
          -42 callgsubr
          157 -341 rlineto
          endchar
        </CharString>
        <CharString name="x">
          99 -40 callgsubr
          388 45 11 callsubr
          hintmask 10100000
          342 76 rmoveto
          12 -12 -5 -18 -60 -1 rrcurveto
          hintmask 01100000
          -30 callgsubr
          hintmask 10100000
          -23 callgsubr
          hintmask 01100000
          44 51 -66 callsubr
          hintmask 10100000
          -29 callgsubr
          -30 -24 16 15 -12 hvcurveto
          -133 150 90 125 17 22 46 11 30 2 callsubr
          -6 -11 callsubr
          hintmask 10010000
          -44 -24 -65 callsubr
          hintmask 10100000
          -29 callsubr
          25 2 -12 -16 -12 hvcurveto
          -57 -72 -61 73 -14 17 -2 9 50 2 callsubr
          -33 -11 callsubr
          hintmask 10010000
          -44 -60 -65 callsubr
          hintmask 10100000
          0 callsubr
          36 -26 -18 16 hvcurveto
          105 -122 -119 -143 -11 -13 -9 -17 -60 -1 rlinecurve
          hintmask 01100000
          -30 callgsubr
          hintmask 10100000
          2 45 14 1 37 0 callgsubr
          -70 callsubr
          hintmask 10100000
          -29 callgsubr
          -51 -4 5 16 11 hvcurveto
          76 97 rlineto
          endchar
        </CharString>
        <CharString name="y">
          39 7 callsubr
          -7 callgsubr
          276 137 rmoveto
          -83 216 -77 callsubr
          -50 -65 callsubr
          hintmask 11000000
          -88 callgsubr
          hintmask 10100000
          -10 48 -6 callsubr
          -2 -45 -6 -33 callgsubr
          -14 -65 callsubr
          hintmask 11000000
          -29 callsubr
          41 6 -13 -18 -7 hvcurveto
          endchar
        </CharString>
        <CharString name="yacute">
          12 7 callsubr
          292 -20 hstem
          -12 callsubr
          -10 48 rlineto
          -2 -45 -33 -11 callsubr
          -44 -50 -65 callsubr
          -88 callgsubr
          -10 48 rlineto
          -2 -45 -6 -11 callsubr
          -44 -14 -79 callsubr
          6 -13 -18 -7 hvcurveto
          -140 187 -93 callgsubr
        </CharString>
        <CharString name="ydieresis">
          39 7 callsubr
          108 138 hstem
          120 -26 callgsubr
          vstem
          -12 callsubr
          -10 48 rlineto
          -2 -45 -33 -11 callsubr
          -44 -50 -65 callsubr
          -88 callgsubr
          -10 48 rlineto
          -2 -45 -6 -11 callsubr
          -44 -14 -79 callsubr
          6 -13 -18 -7 hvcurveto
          -240 252 -105 callsubr
        </CharString>
        <CharString name="yen">
          149 -46 callsubr
          196 66 39 66 264 50 3 -18 callgsubr
          236 137 hintmask 10111001
          526 193 rmoveto
          18 callsubr
          -142 39 147 vlineto
          18 callsubr
          -136 vlineto
          100 166 rlineto
          56 32 49 42 58 hhcurveto
          hintmask 10110101
          -7 53 rlineto
          hintmask 10111001
          -15 callgsubr
          hintmask 10110101
          -60 -31 3 -50 hhcurveto
          hintmask 10111001
          10 -53 rlineto
          82 -8 -32 -46 -23 hvcurveto
          -82 -163 -106 194 rlineto
          39 -21 7 9 67 hhcurveto
          hintmask 10110011
          -9 53 rlineto
          -6 -63 -33 3 -43 hhcurveto
          -47 -51 0 3 -46 hvcurveto
          25 callgsubr
          29 -30 -52 34 hvcurveto
          120 -183 rlineto
          -137 hlineto
          -16 8 -49 11 -1 vhcurveto
          134 -39 -147 hlineto
          -16 8 -49 11 -1 vhcurveto
          128 -106 hlineto
          -86 callsubr
          hintmask 01111001
          -44 callsubr
          hintmask 10111001
          -74 callsubr
          hintmask 01111001
          -77 callgsubr
          hintmask 10111001
          16 callsubr
          106 rlineto
          endchar
        </CharString>
        <CharString name="z">
          -10 0 62 -45 -21 22 -21 22 -21 372 59 13 -20 hstemhm
          hintmask 10001000
          361 184 rmoveto
          -90 -14 -15 -32 -62 hhcurveto
          -101 hlineto
          242 341 rlineto
          4 -5 15 -6 12 vhcurveto
          -4 -47 -34 -1 -29 hhcurveto
          -72 hlineto
          hintmask 10000100
          -59 -48 -4 17 -55 hvcurveto
          -6 -28 -5 -25 -3 -25 -3 -23 0 -30 -1 -25 48 -13 rcurveline
          hintmask 00101000
          106 20 34 -9 108 hhcurveto
          8 hlineto
          -75 -97 -38 -57 -124 -196 rrcurveto
          -7 1 -5 7 -11 vhcurveto
          hintmask 00011000
          3 14 1 13 hhcurveto
          hintmask 10001000
          1 32 115 1 45 hhcurveto
          hintmask 01001000
          77 46 -2 -2 37 hvcurveto
          7 31 3 31 33 vvcurveto
          34 -2 28 -4 37 vhcurveto
          endchar
        </CharString>
        <CharString name="zero">
          148 -12 68 572 64 hstem
          25 131 297 131 vstem
          25 335 rmoveto
          -216 112 -131 170 168 109 156 207 195 -112 146 -170 -174 -103 -171 -186 vhcurveto
          298 -279 rmoveto
          -135 -32 169 148 120 50 135 85 125 37 -171 -142 -131 -41 -128 -89 hvcurveto
          endchar
        </CharString>
      <CharString index="0">
        -23 -30 17 36 25 17 26 92 19 hvcurveto
        135 -115 rmoveto
        -6 -10 1 18 hvcurveto
        203 vlineto
        106 -54 52 -84 -40 -103 -36 -28 -25 vhcurveto
        -94 callgsubr
        13 -43 -72 hvcurveto
        -36 vlineto
        return
      </CharString>
      <CharString index="1">
        79 77 1 75 hhcurveto
        21 51 180 -83 callgsubr
        -51 -28 6 47 hvcurveto
        206 -98 callgsubr
        return
      </CharString>
      <CharString index="2">
        rmoveto
        3 5 0 4 -2 3 rrcurveto
        15 -16 -2 0 -5 hhcurveto
        -34 -29 -35 2 -14 -62 -48 4 -55 hhcurveto
        -37 -28 -55 -32 -16 hvcurveto
        -3 -4 0 -4 3 -4 13 -12 4 -2 4 1 rrcurveto
        25 30 17 0 20 58 51 -2 51 hhcurveto
        50 45 85 5 3 hvcurveto
        return
      </CharString>
      <CharString index="3">
        -105 callgsubr
        endchar
      </CharString>
      <CharString index="4">
        rmoveto
        -41 28 -27 41 41 29 2 callgsubr
        -29 25 -41 -39 -30 -34 -36 vhcurveto
        182 hmoveto
        -41 28 -27 41 39 30 34 36 return
      </CharString>
      <CharString index="5">
        289 50 -90 callsubr
        -254 159 rmoveto
        -71 callgsubr
        139 143 -102 86 -145 -49 callsubr
        vhcurveto
        return
      </CharString>
      <CharString index="6">
        67 19 24 -63 callsubr
        -26 1 callgsubr
        323 vlineto
        -95 callgsubr
        -248 vlineto
        -17 -20 -37 -11 -24 hhcurveto
        -47 -31 25 72 hvcurveto
        261 vlineto
        -95 callgsubr
        -1 -211 rlineto
        return
      </CharString>
      <CharString index="7">
        -60 callsubr
        -98 callsubr
        return
      </CharString>
      <CharString index="8">
        -87 callgsubr
        -86 -182 5 -14 8 -9 23 -6 rlinecurve
        101 123 102 -123 -91 callgsubr
        -80 172 rlineto
        return
      </CharString>
      <CharString index="9">
        164 vlineto
        10 2 -12 -77 hvcurveto
        58 11 rlineto
        -2 44 -1 40 39 57 3 41 40 vvcurveto
        -56 -9 rlineto
        -73 -3 -23 -9 17 callsubr
        hlineto
        return
      </CharString>
      <CharString index="10">
        13 -54 rlineto
        -96 callgsubr
        return
      </CharString>
      <CharString index="11">
        -39 callgsubr
        -536 vlineto
        -86 callsubr
        return
      </CharString>
      <CharString index="12">
        -6 -48 -5 0 -35 hhcurveto
        -44 -10 -79 callsubr
        1 -18 -13 hvcurveto
        return
      </CharString>
      <CharString index="13">
        -9 -10 -10 -30 -23 vvcurveto
        -27 4 -9 11 32 47 13 5 vhcurveto
        64 vlineto
        5 9 25 5 15 hhcurveto
        47 return
      </CharString>
      <CharString index="14">
        rmoveto
        3 -12 11 -12 22 -5 163 163 rcurveline
        2 3 -2 3 -3 2 rrcurveto
        14 -22 -47 25 -40 hhcurveto
        endchar
      </CharString>
      <CharString index="15">
        -90 callgsubr
        -120 -17 120 57 1 hvcurveto
        return
      </CharString>
      <CharString index="16">
        18 6 3 2 8 8 rlinecurve
        5 5 2 6 2 vvcurveto
        return
      </CharString>
      <CharString index="17">
        65 74 -84 callsubr
        -16 -16 -48 -31 -51 hhcurveto
        return
      </CharString>
      <CharString index="18">
        rmoveto
        -34 -22 -26 -45 -11 -24 -2 -3 0 -4 3 -1 226 -51 rcurveline
        15 16 3 16 -4 12 rrcurveto
        return
      </CharString>
      <CharString index="19">
        -42 callgsubr
        152 -330 rlineto
        -60 -21 -54 -124 -37 hhcurveto
        -32 -15 4 1 -4 hvcurveto
        -9 -25 -56 -21 hvcurveto
        -15 18 24 -7 22 hhcurveto
        88 36 92 48 21 hvcurveto
        208 481 11 25 17 5 30 1 rlinecurve
        return
      </CharString>
      <CharString index="20">
        -21 -19 0 -1 -14 hvcurveto
        -4 -22 -1 -4 hhcurveto
        return
      </CharString>
      <CharString index="21">
        -13 54 rlineto
        -57 -56 callgsubr
        return
      </CharString>
      <CharString index="22">
        rmoveto
        -174 -75 159 164 147 79 123 129 166 return
      </CharString>
      <CharString index="23">
        60 51 -4 50 hhcurveto
        -10 55 -65 1 -51 26 18 50 rlinecurve
        42 120 rlineto
        return
      </CharString>
      <CharString index="24">
        15 hvcurveto
        -54 11 rlineto
        -80 -27 -50 -64 -107 hhcurveto
        -94 hlineto
        return
      </CharString>
      <CharString index="25">
        -41 callgsubr
        hintmask 10011000
        -36 callsubr
        hintmask 10101000
        -48 callgsubr
        hintmask 10011000
        -50 -50 -81 callsubr
        hintmask 10101000
        -97 callgsubr
        hintmask 01101000
        -44 callsubr
        hintmask 10101000
        -74 callsubr
        hintmask 01101000
        -77 callgsubr
        hintmask 10101000
        -86 callgsubr
        return
      </CharString>
      <CharString index="26">
        -52 callgsubr
        hintmask 01101110
        -30 callgsubr
        hintmask 10101110
        -32 callgsubr
        hintmask 01101110
        44 30 -66 callsubr
        hintmask 10101110
        -51 callgsubr
        return
      </CharString>
      <CharString index="27">
        vlineto
        -86 callsubr
        hintmask 01110110
        -44 callsubr
        hintmask 10110110
        -74 callsubr
        hintmask 01110110
        -77 callgsubr
        hintmask 10110110
        -86 callgsubr
        return
      </CharString>
      <CharString index="28">
        rmoveto
        8 12 8 22 18 vvcurveto
        4 -4 8 -4 5 vhcurveto
        -5 -9 -20 -3 -20 hhcurveto
        -12 132 hlineto
        20 3 15 4 7 vhcurveto
        6 -4 9 -4 6 vhcurveto
        -15 -17 1 -8 -9 hvcurveto
        -189 -220 rlineto
        -13 -9 20 -8 9 hhcurveto
        137 -107 hlineto
        17 -8 37 -3 20 -1 rrcurveto
        119 vlineto
        24 9 -1 -7 20 hvcurveto
        return
      </CharString>
      <CharString index="29">
        -29 callgsubr
        -51 -41 callsubr
        return
      </CharString>
      <CharString index="30">
        50 50 -56 callsubr
        return
      </CharString>
      <CharString index="31">
        41 -4 20 -12 -31 vvcurveto
        -39 -39 -14 -34 -4 vhcurveto
        -2 -1 -2 -5 -5 1 -15 3 hvcurveto
        95 -3 70 27 69 vvcurveto
        33 -38 38 -61 3 vhcurveto
        return
      </CharString>
      <CharString index="32">
        -36 22 -30 43 42 24 33 38 38 -30 24 -36 -31 -34 -26 -41 vhcurveto
        return
      </CharString>
      <CharString index="33">
        rmoveto
        67 -150 rlineto
        -41 18 -24 -7 -67 hhcurveto
        9 -53 rlineto
        return
      </CharString>
      <CharString index="34">
        -26 callsubr
        -35 callgsubr
        292 -35 callsubr
        -30 -8 callgsubr
        13 0 3 hhcurveto
        21 5 -11 -12 hvcurveto
        return
      </CharString>
      <CharString index="35">
        -14 -69 -2 vhcurveto
        return
      </CharString>
      <CharString index="36">
        -142 102 -79 145 134 109 92 return
      </CharString>
      <CharString index="37">
        vstem
        434 652 rmoveto
        39 47 -6 -11 29 hvcurveto
        51 -19 27 -36 10 -80 72 -8 rcurveline
        4 39 2 35 34 vvcurveto
        38 0 24 -11 23 vhcurveto
        -34 5 -26 5 -25 5 rrcurveto
        11 -46 -53 11 -72 hhcurveto
        -230 -178 -133 -248 return
      </CharString>
      <CharString index="38">
        -20 -62 callgsubr
        return
      </CharString>
      <CharString index="39">
        rmoveto
        40 5 28 51 54 hhcurveto
        63 12 -50 -41 hvcurveto
        return
      </CharString>
      <CharString index="40">
        65 30 -37 -92 15 hvcurveto
        44 -7 rlineto
        return
      </CharString>
      <CharString index="41">
        -211 -173 -170 -207 return
      </CharString>
      <CharString index="42">
        14 69 2 vhcurveto
        return
      </CharString>
      <CharString index="43">
        -39 callsubr
        -77 callgsubr
        -86 callgsubr
        return
      </CharString>
      <CharString index="44">
        1 rlinecurve
        hintmask 10100000
        -10 48 -6 callsubr
        -2 -45 return
      </CharString>
      <CharString index="45">
        hstemhm
        -50 callgsubr
        return
      </CharString>
      <CharString index="46">
        -14 -22 hvcurveto
        return
      </CharString>
      <CharString index="47">
        -240 -58 callgsubr
        return
      </CharString>
      <CharString index="48">
        -55 callgsubr
        -39 callgsubr
        return
      </CharString>
      <CharString index="49">
        vlineto
        -17 -9 -31 callsubr
        return
      </CharString>
      <CharString index="50">
        rmoveto
        12 -94 8 -63 2 -40 18 -7 21 1 13 17 rrcurveto
        5 9 18 190 33 vvcurveto
        return
      </CharString>
      <CharString index="51">
        -10 14 22 hvcurveto
        return
      </CharString>
      <CharString index="52">
        13 -54 rlineto
        return
      </CharString>
      <CharString index="53">
        -52 callgsubr
        hintmask 01101100
        -30 callgsubr
        hintmask 10101100
        -32 callgsubr
        hintmask 01101100
        44 30 -66 callsubr
        hintmask 10101100
        -51 callgsubr
        return
      </CharString>
      <CharString index="54">
        -110 60 -45 97 55 64 44 12 18 vhcurveto
        return
      </CharString>
      <CharString index="55">
        vlineto
        -1 -17 -8 -13 -50 -1 rrcurveto
        return
      </CharString>
      <CharString index="56">
        -29 callgsubr
        -41 -1 18 13 hvcurveto
        return
      </CharString>
      <CharString index="57">
        110 138 return
      </CharString>
      <CharString index="58">
        17 2 42 9 -46 vvcurveto
        -66 -69 -54 -20 -19 vhcurveto
        8 -10 26 -11 16 1 rrcurveto
        87 62 39 93 58 vvcurveto
        54 -35 44 -63 -17 -25 -7 -14 -15 vhcurveto
        endchar
      </CharString>
      <CharString index="59">
        -2 -51 -52 -15 callsubr
        return
      </CharString>
      <CharString index="60">
        -37 22 -30 44 43 24 33 40 38 -30 24 -37 -31 -35 -27 -41 vhcurveto
        return
      </CharString>
      <CharString index="61">
        rmoveto
        90 -217 rlineto
        -167 hlineto
        return
      </CharString>
      <CharString index="62">
        5 30 -63 callgsubr
        -6 -33 callgsubr
        -14 -65 callsubr
        hintmask 11000000
        -29 callsubr
        41 return
      </CharString>
      <CharString index="63">
        -40 callsubr
        endchar
      </CharString>
      <CharString index="64">
        374 -1 rmoveto
        -7 9 -4 10 vhcurveto
        return
      </CharString>
      <CharString index="65">
        0 callsubr
        24 -22 -22 10 hvcurveto
        return
      </CharString>
      <CharString index="66">
        20 10 -65 callgsubr
        return
      </CharString>
      <CharString index="67">
        0 45 -27 -21 return
      </CharString>
      <CharString index="68">
        57 -57 callsubr
        return
      </CharString>
      <CharString index="69">
        -29 callgsubr
        -71 -41 callsubr
        196 vlineto
        -15 23 40 -14 42 hhcurveto
        121 94 -9 callgsubr
        return
      </CharString>
      <CharString index="70">
        -46 callsubr
        662 51 return
      </CharString>
      <CharString index="71">
        -22 callsubr
        vstem
        return
      </CharString>
      <CharString index="72">
        28 27 -2 27 hhcurveto
        -6 39 rlineto
        -33 -1 -13 12 6 vvcurveto
        return
      </CharString>
      <CharString index="73">
        105 -12 80 -51 51 317 45 return
      </CharString>
      <CharString index="74">
        -11 callsubr
        hintmask 10100000
        -44 return
      </CharString>
      <CharString index="75">
        2 45 35 -30 callsubr
        return
      </CharString>
      <CharString index="76">
        2 51 37 -39 callsubr
        return
      </CharString>
      <CharString index="77">
        10 -48 rlineto
        return
      </CharString>
      <CharString index="78">
        -11 48 rlineto
        return
      </CharString>
      <CharString index="79">
        -25 callsubr
        8 24 callsubr
        return
      </CharString>
      <CharString index="80">
        -20 hstemhm
        74 125 159 124 return
      </CharString>
      <CharString index="81">
        139 43 138 return
      </CharString>
      <CharString index="82">
        15 -2 14 -28 vhcurveto
        -56 -22 return
      </CharString>
      <CharString index="83">
        327 -12 72 599 51 return
      </CharString>
      <CharString index="84">
        2 45 44 -30 callsubr
        return
      </CharString>
      <CharString index="85">
        54 4 9 -18 -28 vvcurveto
        return
      </CharString>
      <CharString index="86">
        -30 callsubr
        hintmask 01111100
        -70 callsubr
        hintmask 10111100
        -78 callgsubr
        return
      </CharString>
      <CharString index="87">
        rmoveto
        14 19 37 13 30 hhcurveto
        71 32 -69 -105 -74 -28 -77 -70 -47 -44 24 33 hvcurveto
        return
      </CharString>
      <CharString index="88">
        rmoveto
        -31 18 -25 37 36 20 28 32 33 -25 20 -31 -26 -29 -22 -35 vhcurveto
        endchar
      </CharString>
      <CharString index="89">
        -20 21 -20 hstemhm
        return
      </CharString>
      <CharString index="90">
        rmoveto
        -88 58 -76 92 91 96 85 107 89 -58 77 -92 -92 -95 -86 -108 vhcurveto
        return
      </CharString>
      <CharString index="91">
        -75 callgsubr
        endchar
      </CharString>
      <CharString index="92">
        -1 -46 -38 -2 -38 hhcurveto
        return
      </CharString>
      <CharString index="93">
        -64 -9 69 61 53 8 56 51 47 27 -61 -71 -56 -12 -51 -48 hvcurveto
        return
      </CharString>
      <CharString index="94">
        -46 callgsubr
        endchar
      </CharString>
      <CharString index="95">
        rmoveto
        -13 callsubr
        hintmask 10100000
        23 158 2 32 return
      </CharString>
      <CharString index="96">
        30 48 9 15 13 hvcurveto
        413 vlineto
        -26 -48 -13 -14 -17 hvcurveto
        return
      </CharString>
      <CharString index="97">
        10 -53 rlineto
        82 2 -38 -40 -33 hvcurveto
        -139 -195 rlineto
        return
      </CharString>
      <CharString index="98">
        99 146 120 -85 95 -102 return
      </CharString>
      <CharString index="99">
        -4 -18 -2 11 -36 rcurveline
        2 11 return
      </CharString>
      <CharString index="100">
        11 callsubr
        hintmask 11000000
        return
      </CharString>
      <CharString index="101">
        -17 -10 -31 callsubr
        return
      </CharString>
      <CharString index="102">
        -43 hhcurveto
        hintmask 10100000
        -16 callsubr
        hintmask 11000000
        11 return
      </CharString>
      <CharString index="103">
        rmoveto
        -185 -90 -104 -167 -135 0 24 42 vhcurveto
        return
      </CharString>
      <CharString index="104">
        3 15 rrcurveto
        3 16 1 15 17 vvcurveto
        -29 13 rlineto
        return
      </CharString>
      <CharString index="105">
        -82 22 rmoveto
        -59 -50 58 105 76 18 72 80 51 return
      </CharString>
      <CharString index="106">
        -35 -8 -39 -33 -17 -15 rrcurveto
        return
      </CharString>
      <CharString index="107">
        hhcurveto
        hintmask 01100000
        return
      </CharString>
      <CharString index="108">
        2 16 29 hvcurveto
        return
      </CharString>
      <CharString index="109">
        34 36 43 return
      </CharString>
      <CharString index="110">
        -30 -156 -3 -31 -29 -185 3 -28 hhcurveto
        return
      </CharString>
      <CharString index="111" raw="1">
        581df797 070b  
      </CharString>
      <CharString index="112">
        -58 22 hvcurveto
        213 -577 rlineto
        85 hlineto
        return
      </CharString>
      <CharString index="113">
        221 -20 21 -69 callgsubr
        return
      </CharString>
      <CharString index="114">
        -18 -50 rlinecurve
        -138 -395 rlineto
        endchar
      </CharString>
      <CharString index="115">
        -19 -21 -42 -28 -56 hhcurveto
        return
      </CharString>
      <CharString index="116">
        2 45 45 -30 callsubr
        return
      </CharString>
      <CharString index="117">
        -20 hstemhm
        hintmask 01100000
        return
      </CharString>
      <CharString index="118">
        40 155 return
      </CharString>
      <CharString index="119">
        45 11 8 7 8 36 -3 17 rrcurveto
        return
      </CharString>
      <CharString index="120">
        9 -9 7 19 4 50 -3 9 -41 return
      </CharString>
      <CharString index="121">
        -61 -8 -8 0 1 -15 hvcurveto
        -5 -4 return
      </CharString>
      <CharString index="122">
        -96 -55 -54 -79 -13 -13 0 3 -16 return
      </CharString>
      <CharString index="123">
        612 rmoveto
        36 -26 12 12 67 hhcurveto
        return
      </CharString>
      <CharString index="124">
        1 -11 hhcurveto
        -11 -15 -17 -36 14 -11 return
      </CharString>
      <CharString index="125">
        -29 -48 hvcurveto
        -205 vlineto
        -14 -20 return
      </CharString>
      <CharString index="126">
        hlineto
        11 18 3 31 -3 14 rrcurveto
        return
      </CharString>
      <CharString index="127">
        -58 72 -137 166 32 vvcurveto
        return
      </CharString>
      <CharString index="128">
        -3 -9 4 -50 7 -19 9 9 return
      </CharString>
      <CharString index="129">
        72 592 70 hstem
        40 156 return
      </CharString>
      <CharString index="130">
        rmoveto
        -79 hlineto
        79 93 rlineto
        endchar
      </CharString>
      <CharString index="131">
        -255 45 -27 -21 return
      </CharString>
      <CharString index="132">
        11 -53 rlineto
        50 return
      </CharString>
      <CharString index="133">
        12 rrcurveto
        endchar
      </CharString>
</ttFont>
